<svg width="96" height="96" viewBox="0 0 96 96" fill="none" xmlns="http://www.w3.org/2000/svg">
<path d="M0 0V96H96V0H0ZM40.7884 68.9113L31.9125 50.6194L23.3488 68.8676H15.0024L27.2852 45.468L15.4095 21.8063H24.0724L32.4802 39.7926L40.8176 21.7626H48.9495L37.0641 44.7257L49.6513 68.9113H40.7882H40.7884ZM78.8432 66.9904C75.1761 68.7368 71.3342 69.5226 67.6671 69.5226C58.1938 69.5662 51.4271 63.7163 51.4271 51.8417C51.7354 39.6774 59.8406 32.8897 71.2033 33.8117V21.8063H78.9741V62.232C78.9902 67.0532 79.5223 66.5895 78.8432 66.9904ZM71.2031 40.6657V62.2755C63.5331 64.2658 59.2922 59.598 59.3288 51.4924C59.3576 43.1798 64.8191 38.8656 71.2031 40.6657Z" fill="#F9F9F9"/>
</svg>
