<svg width="96" height="96" viewBox="0 0 96 96" fill="none" xmlns="http://www.w3.org/2000/svg">
<path fill-rule="evenodd" clip-rule="evenodd" d="M12.3784 96C5.54212 96 0 90.4586 0 83.6216V83.6213V12.3784C0 5.54212 5.54137 0 12.3787 0H83.6216C90.4579 0 96 5.54137 96 12.3787V83.6216C96 90.4579 90.4586 96 83.6213 96H12.3784ZM39.8092 28.8694V42.4642H52.7527C55.0324 42.4642 56.9048 41.9216 58.3699 40.836C59.8354 39.7508 60.5681 37.9868 60.5681 35.5444C60.5681 34.188 60.3236 33.0754 59.8354 32.2069C59.3468 31.3388 58.6954 30.6604 57.8816 30.1717C57.0675 29.6831 56.1311 29.3441 55.0729 29.1544C54.0146 28.9643 52.9159 28.8694 51.7759 28.8694H39.8092ZM27.0281 77.0625V18.9375H54.381C57.1489 18.9375 59.6726 19.1816 61.9519 19.6702C64.2315 20.1585 66.1853 20.9591 67.8131 22.0718C69.4414 23.1844 70.7032 24.6634 71.5987 26.5084C72.4942 28.3538 72.942 30.633 72.942 33.3465C72.942 36.2775 72.2771 38.7195 70.9478 40.6732C69.618 42.627 67.6504 44.2282 65.0452 45.4762C68.6273 46.5075 71.3002 48.312 73.0643 50.8901C74.8279 53.4679 75.7099 56.5748 75.7099 60.2111C75.7099 63.1418 75.1403 65.679 74.0003 67.8229C72.8606 69.9664 71.3273 71.7169 69.4009 73.0736C67.4741 74.4304 65.2763 75.4342 62.8069 76.0856C60.3375 76.737 57.8002 77.0625 55.1951 77.0625H27.0281ZM39.8092 51.1748V67.1306H53.4855C54.7339 67.1306 55.9275 67.0084 57.0675 66.7646C58.2071 66.5201 59.2114 66.1133 60.0795 65.5433C60.948 64.9736 61.6399 64.2 62.1555 63.2231C62.6711 62.2463 62.9291 60.9982 62.9291 59.4784C62.9291 56.4934 62.0876 54.3634 60.4054 53.088C58.7227 51.8122 56.4975 51.1748 53.7296 51.1748H39.8092Z" fill="#F9F9F9"/>
</svg>
