<svg width="85" height="97" viewBox="0 0 85 97" fill="none" xmlns="http://www.w3.org/2000/svg">
<path fill-rule="evenodd" clip-rule="evenodd" d="M0 0L7.73291 86.7662L42.4484 96.4031L77.2568 86.7525L85 0H0ZM16.833 27.6334H42.5382L57.5527 27.6334L56.5817 38.5304H42.5V49.1726H55.6357L54.3955 62.9719L42.5276 66.1738V66.1778L42.5171 66.1808L30.6664 62.9789L29.909 54.4919H19.2255L20.7163 71.2007L42.5137 77.2534L42.5653 77.2396V77.236L64.3422 71.2006L64.5041 69.4034L66.3126 49.1726H66.315L68.9282 19.8454L69.183 16.9912H42.5382H42.5H15.8793L16.1341 19.8454L16.6195 25.2406L16.833 27.6334ZM42.5 38.5302V49.1724H30.7973L30.5838 46.7795L30.1018 41.3844L29.847 38.5302H42.5Z" fill="#F9F9F9"/>
</svg>
