<svg width="35" height="35" viewBox="0 0 35 35" fill="none" xmlns="http://www.w3.org/2000/svg">
<path d="M17.5 0C7.84 0 0 7.84 0 17.5C0 27.16 7.84 35 17.5 35H26.25V31.5H17.5C9.905 31.5 3.5 25.095 3.5 17.5C3.5 9.905 9.905 3.5 17.5 3.5C25.095 3.5 31.5 9.905 31.5 17.5V20.0025C31.5 21.385 30.2575 22.75 28.875 22.75C27.4925 22.75 26.25 21.385 26.25 20.0025V17.5C26.25 12.67 22.33 8.75 17.5 8.75C12.67 8.75 8.75 12.67 8.75 17.5C8.75 22.33 12.67 26.25 17.5 26.25C19.915 26.25 22.12 25.27 23.695 23.6775C24.8325 25.235 26.7925 26.25 28.875 26.25C32.3225 26.25 35 23.45 35 20.0025V17.5C35 7.84 27.16 0 17.5 0ZM17.5 22.75C14.595 22.75 12.25 20.405 12.25 17.5C12.25 14.595 14.595 12.25 17.5 12.25C20.405 12.25 22.75 14.595 22.75 17.5C22.75 20.405 20.405 22.75 17.5 22.75Z" fill="white"/>
</svg>
