<svg width="50" height="80" viewBox="0 0 57 96" fill="none" xmlns="http://www.w3.org/2000/svg">
<path d="M42.6665 64.0001C50.5212 64.0001 56.8887 56.8366 56.8887 48.0001C56.8887 39.1636 50.5212 32.0001 42.6665 32.0001C34.8118 32.0001 28.4443 39.1636 28.4443 48.0001C28.4443 56.8366 34.8118 64.0001 42.6665 64.0001Z" fill="#F9F9F9"/>
<path fill-rule="evenodd" clip-rule="evenodd" d="M14.2222 96C17.9942 96 21.6116 94.3142 24.2788 91.3137C26.946 88.3131 28.4444 84.2434 28.4444 80V64H14.2222C10.4502 64 6.83277 65.6857 4.16559 68.6863C1.49841 71.6869 0 75.7565 0 80C0 84.2434 1.49841 88.3131 4.16559 91.3137C6.83277 94.3142 10.4502 96 14.2222 96Z" fill="#F9F9F9"/>
<path fill-rule="evenodd" clip-rule="evenodd" d="M14.2222 64.0001H28.4444V32.0001H14.2222C10.4502 32.0001 6.83277 33.6858 4.16559 36.6864C1.49841 39.687 0 43.7566 0 48.0001C0 52.2436 1.49841 56.3132 4.16559 59.3138C6.83277 62.3144 10.4502 64.0001 14.2222 64.0001Z" fill="#F9F9F9"/>
<path fill-rule="evenodd" clip-rule="evenodd" d="M14.2222 32H28.4444V0H14.2222C10.4502 0 6.83277 1.68571 4.16559 4.68629C1.49841 7.68686 0 11.7565 0 16C0 20.2434 1.49841 24.3131 4.16559 27.3137C6.83277 30.3142 10.4502 32 14.2222 32Z" fill="#F9F9F9"/>
<path fill-rule="evenodd" clip-rule="evenodd" d="M42.6665 32H28.4443V0H42.6665C46.4385 0 50.056 1.68571 52.7232 4.68629C55.3903 7.68686 56.8887 11.7565 56.8887 16C56.8887 20.2434 55.3903 24.3131 52.7232 27.3137C50.056 30.3142 46.4385 32 42.6665 32Z" fill="#F9F9F9"/>
</svg>
