<svg width="93" height="96" viewBox="0 0 93 96" fill="none" xmlns="http://www.w3.org/2000/svg">
<path d="M91.2462 43.7235L50.6415 1.81044C48.3045 -0.60348 44.5118 -0.60348 42.1719 1.81044L33.7402 10.5144L44.4363 21.5557C46.9219 20.6887 49.7722 21.2703 51.7535 23.3156C53.7443 25.374 54.3037 28.3414 53.4435 30.9155L63.7516 41.5567C66.2456 40.6698 69.1231 41.2435 71.115 43.3031C73.8988 46.1756 73.8988 50.8313 71.115 53.7058C68.3304 56.5806 63.8203 56.5806 61.0343 53.7058C58.9403 51.542 58.423 48.3675 59.4831 45.7046L49.8699 35.7812L49.8688 61.8956C50.5657 62.2512 51.2022 62.7211 51.7535 63.2868C54.5373 66.1594 54.5373 70.8155 51.7535 73.6921C48.969 76.5655 44.4566 76.5655 41.6761 73.6921C38.8922 70.8155 38.8922 66.1598 41.6761 63.2872C42.3432 62.5982 43.136 62.0525 44.0087 61.6818V35.3241C43.1348 34.9558 42.3415 34.4098 41.6761 33.7187C39.5669 31.5444 39.0597 28.3497 40.1405 25.6763L29.5966 14.7909L1.75465 43.5296C-0.584884 45.9458 -0.584884 49.8612 1.75465 52.2755L42.3601 94.1893C44.6978 96.6036 48.4898 96.6036 50.8304 94.1893L91.2459 52.4701C93.5847 50.0551 93.5847 46.1374 91.2459 43.7235" fill="#F9F9F9"/>
</svg>
