<svg width="97" height="96" viewBox="0 0 97 96" fill="none" xmlns="http://www.w3.org/2000/svg">
<path fill-rule="evenodd" clip-rule="evenodd" d="M48.5 0C21.7038 0 7.07879e-06 22.0238 7.07879e-06 49.2153C-0.00549388 59.547 3.19525 69.618 9.14815 77.9997C15.1011 86.3815 23.5038 92.6482 33.1643 95.9108C35.5893 96.339 36.4963 94.8625 36.4963 93.5681C36.4963 92.4017 36.4332 88.5285 36.4332 84.4043C24.25 86.6829 21.0975 81.3923 20.1275 78.6215C19.5795 77.2041 17.2175 72.8387 15.1563 71.6673C13.4588 70.747 11.0338 68.4683 15.0932 68.4093C18.915 68.3453 21.6407 71.9774 22.5525 73.4538C26.9175 80.8952 33.8918 78.8036 36.6757 77.5141C37.1025 74.3151 38.3732 72.1644 39.77 70.934C28.9788 69.7036 17.7025 65.4564 17.7025 46.6315C17.7025 41.2769 19.5795 36.8524 22.6738 33.4024C22.1888 32.172 20.4913 27.1275 23.1588 20.3604C23.1588 20.3604 27.2182 19.0709 36.4963 25.4099C40.4445 24.2979 44.5238 23.7382 48.6213 23.7464C52.7438 23.7464 56.8662 24.2976 60.7463 25.4049C70.0194 19.007 74.0837 20.3653 74.0837 20.3653C76.7513 27.1324 75.0537 32.177 74.5687 33.4074C77.6582 36.8524 79.54 41.2178 79.54 46.6315C79.54 65.5203 68.2056 69.7036 57.4143 70.934C59.17 72.4695 60.688 75.4225 60.688 80.0389C60.688 86.6189 60.625 91.9096 60.625 93.5731C60.625 94.8625 61.5368 96.398 63.9618 95.9059C73.5892 92.6074 81.9549 86.3285 87.8815 77.9529C93.8081 69.5772 96.9972 59.5265 97 49.2153C97 22.0238 75.2962 0 48.5 0Z" fill="#F9F9F9"/>
</svg>
