<svg width="87" height="98" viewBox="0 0 87 98" fill="none" xmlns="http://www.w3.org/2000/svg">
<path fill-rule="evenodd" clip-rule="evenodd" d="M8.27149 87.9225L0.479004 0.833374H86.1028L78.2999 87.9086L43.2389 97.5952L8.27149 87.9225ZM43.6389 68.3051L43.5901 68.319L31.5726 65.0904L30.8045 56.5236H19.9706L21.4824 73.3861L43.5901 79.4958L43.6389 79.4819V68.3051ZM43.639 51.2273V40.5127H68.6996L68.4346 43.3898L65.9023 71.5959L65.7419 73.4054L43.639 79.4959V68.3479L55.6653 65.1242L56.914 51.2273H43.639ZM43.639 40.3651H29.3113L28.3235 29.5221H43.639V18.9326H16.49L16.7492 21.7761L19.4081 50.9545H43.639V40.3651ZM43.639 29.3745V18.9326H70.0919L69.8391 21.7365L69.3574 27.0301L69.1456 29.3745H43.639Z" fill="#F9F9F9"/>
</svg>
