<svg width="101" height="96" viewBox="0 0 101 96" fill="none" xmlns="http://www.w3.org/2000/svg">
<path fill-rule="evenodd" clip-rule="evenodd" d="M33.9394 20.2515H44.4603L59.5892 68.4279H50.4507L46.6876 54.705H31.9428L28.1029 68.4281H20.0392L33.9396 22.5144V20.2515H33.9394ZM44.614 47.6246L39.3918 27.2588L34.0161 47.6243H44.614V47.6246ZM75.2559 32.6246H66.9618V68.4281H75.2559V32.625V32.6246ZM71.0018 18.7146C68.3149 18.7146 66.1367 20.7611 66.1367 23.2858C66.1367 25.8105 68.3149 27.8573 71.0018 27.8573C73.6888 27.8573 75.8672 25.8107 75.8672 23.286C75.8672 20.7613 73.689 18.7146 71.0018 18.7146ZM101 96H0V0H101V96Z" fill="#F9F9F9"/>
</svg>
