<svg width="91" height="96" viewBox="0 0 91 96" fill="none" xmlns="http://www.w3.org/2000/svg">
<path fill-rule="evenodd" clip-rule="evenodd" d="M0 0H90.0414V96H0V0ZM23.6752 80.2246L30.5654 75.7786C31.8949 78.2915 33.1042 80.4177 36.0048 80.4177C38.7852 80.4177 40.5386 79.2582 40.5386 74.7477V44.0735H49V74.8752C49 84.2191 43.8627 88.4724 36.3675 88.4724C29.5985 88.4724 25.6694 84.7347 23.6748 80.2239L23.6752 80.2246ZM60.4853 75.005L53.5957 79.2579L53.5954 79.2582C56.0733 84.4782 61.1504 88.4735 69.0076 88.4735C77.0462 88.4735 83.0298 84.0275 83.0298 75.9072C83.0298 68.3682 78.9804 65.0176 71.7876 61.7307L69.6724 60.7644C66.0461 59.0889 64.4746 57.9927 64.4746 55.2864C64.4746 53.0956 66.0461 51.4201 68.5243 51.4201C70.9421 51.4201 72.5129 52.5155 73.9637 55.2864L80.5522 50.7751C77.7722 45.5555 73.9039 43.5575 68.5247 43.5575C60.9693 43.5575 56.1341 48.713 56.1341 55.4795C56.1341 62.8257 60.1835 66.3057 66.2884 69.0759L68.4033 70.0434C72.2716 71.8471 74.5684 72.9429 74.5684 76.0359C74.5684 78.6136 72.3328 80.4826 68.8265 80.4826C64.6564 80.4826 62.2992 78.1629 60.4853 75.005Z" fill="#F9F9F9"/>
</svg>
