<svg width="35" height="35" viewBox="0 0 35 35" fill="none" xmlns="http://www.w3.org/2000/svg">
<path d="M17.5 0C7.8349 0 0 7.8349 0 17.5C0 27.1651 7.8349 35 17.5 35C27.1651 35 35 27.1651 35 17.5C35 7.8349 27.1651 0 17.5 0ZM13.2161 24.7534H9.67239V13.3492H13.2161V24.7534ZM11.4224 11.9492C10.3031 11.9492 9.57943 11.1562 9.57943 10.1755C9.57943 9.17474 10.325 8.40547 11.468 8.40547C12.6109 8.40547 13.3109 9.17474 13.3328 10.1755C13.3328 11.1562 12.6109 11.9492 11.4224 11.9492ZM26.1589 24.7534H22.6151V18.4333C22.6151 16.9622 22.101 15.9633 20.8195 15.9633C19.8406 15.9633 19.2591 16.6396 19.0021 17.2904C18.9073 17.5219 18.8836 17.85 18.8836 18.1763V24.7516H15.338V16.9859C15.338 15.5622 15.2924 14.3719 15.2451 13.3474H18.324L18.4862 14.9315H18.5573C19.024 14.1878 20.1669 13.0904 22.0792 13.0904C24.4107 13.0904 26.1589 14.6526 26.1589 18.0104V24.7534Z" fill="white"/>
</svg>
