<svg width="35" height="35" viewBox="0 0 35 35" fill="none" xmlns="http://www.w3.org/2000/svg">
<path d="M27.7083 13.1251C27.7083 11.7845 27.4443 10.4571 26.9312 9.21852C26.4182 7.97999 25.6663 6.85463 24.7183 5.9067C23.7704 4.95877 22.6451 4.20683 21.4065 3.69381C20.168 3.18079 18.8405 2.91675 17.5 2.91675C16.1594 2.91675 14.8319 3.18079 13.5934 3.69381C12.3549 4.20683 11.2295 4.95877 10.2816 5.9067C9.33365 6.85463 8.58171 7.97999 8.06869 9.21852C7.55567 10.4571 7.29163 11.7845 7.29163 13.1251C7.29163 15.1478 7.88954 17.029 8.90308 18.6157H8.89142C12.3331 24.0043 17.5 32.0834 17.5 32.0834L26.1085 18.6157H26.0983C27.1489 16.9771 27.7076 15.0716 27.7083 13.1251ZM17.5 17.5001C16.3396 17.5001 15.2268 17.0391 14.4064 16.2187C13.5859 15.3982 13.125 14.2854 13.125 13.1251C13.125 11.9648 13.5859 10.852 14.4064 10.0315C15.2268 9.21102 16.3396 8.75008 17.5 8.75008C18.6603 8.75008 19.7731 9.21102 20.5936 10.0315C21.414 10.852 21.875 11.9648 21.875 13.1251C21.875 14.2854 21.414 15.3982 20.5936 16.2187C19.7731 17.0391 18.6603 17.5001 17.5 17.5001Z" fill="white"/>
</svg>
