<svg width="727" height="82" viewBox="0 0 727 82" fill="none" xmlns="http://www.w3.org/2000/svg">
<path d="M34.8089 20.9022V26.9318L6.85333 38.0044L34.8089 49.077V55.3259L0.604445 38.0044L34.8089 20.9022ZM126.538 32.0844C126.538 40.197 125.003 46.519 121.934 51.0504C118.864 55.5086 114.552 58.6148 108.997 60.3689C103.443 62.123 96.9381 63 89.4832 63H73.1484V1.27852H89.4832C96.9381 1.27852 103.443 2.4479 108.997 4.78666C114.552 7.05234 118.864 10.4509 121.934 14.9822C125.003 19.5136 126.538 25.2143 126.538 32.0844ZM80.1647 56.9704H91.0181C96.7188 56.9704 101.652 56.3491 105.818 55.1067C110.057 53.7911 113.309 51.3427 115.575 47.7615C117.914 44.1802 119.083 38.9546 119.083 32.0844C119.083 23.6795 116.525 17.5037 111.409 13.557C106.293 9.53728 99.4961 7.5274 91.0181 7.5274H80.1647V56.9704ZM140.011 13.557C138.403 13.557 137.306 13.1551 136.722 12.3511C136.21 11.4741 135.954 10.3778 135.954 9.06222C135.954 7.96592 136.21 7.0158 136.722 6.21185C137.306 5.33481 138.403 4.89629 140.011 4.89629C141.618 4.89629 142.678 5.33481 143.19 6.21185C143.774 7.0158 144.067 7.96592 144.067 9.06222C144.067 10.3778 143.774 11.4741 143.19 12.3511C142.678 13.1551 141.618 13.557 140.011 13.557ZM136.502 63V18.3807H143.519V63H136.502ZM174.079 64.0963C169.182 64.0963 165.126 63 161.91 60.8074C158.767 58.5417 156.428 55.6548 154.894 52.1467C153.432 48.5654 152.701 44.8746 152.701 41.0741C152.701 36.9081 153.505 33.1077 155.113 29.6726C156.794 26.1644 159.206 23.3872 162.348 21.3407C165.564 19.2943 169.401 18.2711 173.86 18.2711C179.56 18.2711 184.311 20.1348 188.111 23.8622C191.912 27.5165 193.958 32.4499 194.251 38.6622C194.324 38.9546 194.36 39.3931 194.36 39.9778C194.36 40.4894 194.36 40.9644 194.36 41.403H159.498C159.498 46.5921 160.74 50.6849 163.225 53.6815C165.783 56.6049 169.365 58.0667 173.969 58.0667C177.404 58.0667 180.328 57.1896 182.74 55.4356C185.224 53.6815 186.759 51.3062 187.344 48.3096H194.251C193.52 52.841 191.364 56.6049 187.782 59.6015C184.201 62.598 179.633 64.0963 174.079 64.0963ZM159.717 37.5659H187.125C187.125 36.0311 186.686 34.2039 185.809 32.0844C185.005 29.9649 183.617 28.1378 181.643 26.603C179.743 24.9951 177.112 24.1911 173.75 24.1911C170.68 24.1911 168.159 24.8489 166.185 26.1644C164.212 27.48 162.714 29.161 161.691 31.2074C160.667 33.2538 160.01 35.3733 159.717 37.5659ZM214.222 81.4178V74.7304H236.477V53.1333H236.258C236.111 53.4988 235.709 54.2662 235.052 55.4356C234.467 56.6049 233.517 57.8474 232.201 59.163C230.959 60.4785 229.314 61.6479 227.268 62.6711C225.295 63.6212 222.883 64.0963 220.032 64.0963C215.72 64.0963 212.103 63.1096 209.179 61.1363C206.329 59.0899 204.173 56.3491 202.711 52.9141C201.249 49.479 200.518 45.6054 200.518 41.2933C200.518 34.5694 202.163 29.0879 205.452 24.8489C208.814 20.5368 213.71 18.3807 220.142 18.3807C223.139 18.3807 225.624 18.8923 227.597 19.9156C229.643 20.8657 231.251 22.0351 232.421 23.4237C233.663 24.8123 234.577 26.0914 235.161 27.2607C235.746 28.4301 236.111 29.1975 236.258 29.563H236.477V18.3807H243.712V70.6741C243.712 74.1822 243.055 76.8499 241.739 78.677C240.424 80.5042 238.048 81.4178 234.613 81.4178H214.222ZM221.567 57.8474C225.952 57.8474 229.497 56.3857 232.201 53.4622C234.906 50.4657 236.258 46.4094 236.258 41.2933C236.258 36.2504 234.979 32.2672 232.421 29.3437C229.863 26.3472 226.464 24.8489 222.225 24.8489C218.717 24.8489 215.867 25.6528 213.674 27.2607C211.554 28.7956 209.983 30.8054 208.96 33.2904C207.937 35.7753 207.425 38.443 207.425 41.2933C207.425 44.0706 207.864 46.7383 208.741 49.2963C209.691 51.7812 211.189 53.8277 213.235 55.4356C215.355 57.0435 218.132 57.8474 221.567 57.8474ZM273.214 64.0963C266.051 64.0963 260.68 61.9768 257.098 57.7378C253.59 53.4257 251.836 47.9442 251.836 41.2933C251.763 34.5694 253.517 29.0879 257.098 24.8489C260.753 20.5368 266.125 18.3442 273.214 18.2711C280.23 18.2711 285.529 20.3906 289.11 24.6296C292.765 28.7956 294.592 34.3501 294.592 41.2933C294.592 45.6054 293.824 49.479 292.289 52.9141C290.755 56.3491 288.416 59.0899 285.273 61.1363C282.13 63.1096 278.111 64.0963 273.214 64.0963ZM273.214 57.957C277.014 57.957 279.938 57.1165 281.984 55.4356C284.104 53.7546 285.566 51.6351 286.369 49.077C287.247 46.4459 287.685 43.7783 287.685 41.0741C287.685 38.3699 287.247 35.7022 286.369 33.0711C285.566 30.44 284.104 28.2839 281.984 26.603C279.938 24.922 277.014 24.0815 273.214 24.0815C269.413 24.0815 266.453 24.922 264.334 26.603C262.288 28.2839 260.826 30.44 259.949 33.0711C259.145 35.7022 258.743 38.3699 258.743 41.0741C258.743 43.7783 259.145 46.4459 259.949 49.077C260.826 51.6351 262.288 53.7546 264.334 55.4356C266.453 57.1165 269.413 57.957 273.214 57.957ZM357.337 64.5348C347.543 64.5348 340.088 61.6479 334.972 55.8741C329.856 50.0272 327.298 42.1704 327.298 32.3037C327.298 25.799 328.394 20.1714 330.587 15.4207C332.853 10.597 336.178 6.86963 340.563 4.23852C345.022 1.53432 350.613 0.18222 357.337 0.18222C367.13 0.18222 374.549 3.10568 379.592 8.95259C384.634 14.7264 387.156 22.5101 387.156 32.3037C387.156 38.6622 386.023 44.2899 383.757 49.1867C381.565 54.0104 378.239 57.7743 373.781 60.4785C369.323 63.1827 363.841 64.5348 357.337 64.5348ZM357.227 57.7378C364.901 57.7378 370.638 55.399 374.439 50.7215C378.312 46.0439 380.249 39.9047 380.249 32.3037C380.249 24.7027 378.349 18.5635 374.549 13.8859C370.748 9.13531 364.974 6.76 357.227 6.76C349.699 6.76 343.962 9.06222 340.015 13.6667C336.142 18.198 334.205 24.4104 334.205 32.3037C334.205 39.8316 336.105 45.9709 339.906 50.7215C343.706 55.399 349.48 57.7378 357.227 57.7378ZM396.86 63V1.27852H403.767V63H396.86ZM419.223 13.557C417.616 13.557 416.519 13.1551 415.935 12.3511C415.423 11.4741 415.167 10.3778 415.167 9.06222C415.167 7.96592 415.423 7.0158 415.935 6.21185C416.519 5.33481 417.616 4.89629 419.223 4.89629C420.831 4.89629 421.891 5.33481 422.403 6.21185C422.987 7.0158 423.28 7.96592 423.28 9.06222C423.28 10.3778 422.987 11.4741 422.403 12.3511C421.891 13.1551 420.831 13.557 419.223 13.557ZM415.715 63V18.3807H422.732V63H415.715ZM465.662 18.3807H472.678V19.9156L455.795 63H445.819L428.826 19.9156V18.3807H435.843L450.752 57.1896H450.972L465.662 18.3807ZM498.471 64.0963C493.574 64.0963 489.518 63 486.302 60.8074C483.16 58.5417 480.821 55.6548 479.286 52.1467C477.824 48.5654 477.093 44.8746 477.093 41.0741C477.093 36.9081 477.897 33.1077 479.505 29.6726C481.186 26.1644 483.598 23.3872 486.741 21.3407C489.957 19.2943 493.794 18.2711 498.252 18.2711C503.953 18.2711 508.703 20.1348 512.504 23.8622C516.304 27.5165 518.351 32.4499 518.643 38.6622C518.716 38.9546 518.753 39.3931 518.753 39.9778C518.753 40.4894 518.753 40.9644 518.753 41.403H483.89C483.89 46.5921 485.133 50.6849 487.618 53.6815C490.176 56.6049 493.757 58.0667 498.362 58.0667C501.797 58.0667 504.72 57.1896 507.132 55.4356C509.617 53.6815 511.152 51.3062 511.736 48.3096H518.643C517.912 52.841 515.756 56.6049 512.175 59.6015C508.594 62.598 504.026 64.0963 498.471 64.0963ZM484.11 37.5659H511.517C511.517 36.0311 511.079 34.2039 510.202 32.0844C509.398 29.9649 508.009 28.1378 506.036 26.603C504.135 24.9951 501.504 24.1911 498.142 24.1911C495.073 24.1911 492.551 24.8489 490.578 26.1644C488.604 27.48 487.106 29.161 486.083 31.2074C485.06 33.2538 484.402 35.3733 484.11 37.5659ZM533.243 13.557C531.635 13.557 530.538 13.1551 529.954 12.3511C529.442 11.4741 529.186 10.3778 529.186 9.06222C529.186 7.96592 529.442 7.0158 529.954 6.21185C530.538 5.33481 531.635 4.89629 533.243 4.89629C534.85 4.89629 535.91 5.33481 536.422 6.21185C537.007 7.0158 537.299 7.96592 537.299 9.06222C537.299 10.3778 537.007 11.4741 536.422 12.3511C535.91 13.1551 534.85 13.557 533.243 13.557ZM529.734 63V18.3807H536.751V63H529.734ZM548.126 63V18.3807H554.484L555.252 30.1111C555.69 28.1378 556.567 26.2375 557.883 24.4104C559.198 22.5832 560.989 21.1215 563.255 20.0252C565.593 18.8558 568.48 18.3077 571.915 18.3807H573.998V26.1644H571.806C567.128 26.1644 563.583 26.8588 561.172 28.2474C558.833 29.563 557.225 31.4267 556.348 33.8385C555.544 36.2504 555.142 39.0277 555.142 42.1704V63H548.126ZM595.788 63.9867C591.695 63.9867 588.333 63 585.702 61.0267C583.071 58.9802 581.098 56.2395 579.782 52.8044C578.54 49.3694 577.918 45.4593 577.918 41.0741C577.918 34.3501 579.38 28.8321 582.304 24.52C585.3 20.1348 589.795 17.9422 595.788 17.9422C598.858 17.9422 601.416 18.4904 603.462 19.5867C605.582 20.6099 607.263 21.8889 608.505 23.4237C609.821 24.9585 610.771 26.4202 611.355 27.8089H611.465V18.3807H618.701V63H612.671L611.575 54.3393H611.355C610.698 55.801 609.747 57.2993 608.505 58.8341C607.263 60.2958 605.582 61.5383 603.462 62.5615C601.416 63.5116 598.858 63.9867 595.788 63.9867ZM598.529 57.7378C603.06 57.7378 606.312 56.2395 608.286 53.243C610.332 50.2464 611.355 46.2267 611.355 41.1837C611.355 35.7753 610.296 31.6459 608.176 28.7956C606.13 25.9452 602.914 24.52 598.529 24.52C593.705 24.52 590.233 26.1279 588.114 29.3437C586.067 32.4864 585.044 36.3965 585.044 41.0741C585.044 45.9709 586.104 49.9906 588.224 53.1333C590.343 56.203 593.778 57.7378 598.529 57.7378ZM651.487 63L679.333 1.27852H686.239L658.393 63H651.487ZM691.892 20.9022L726.096 38.0044L691.892 55.3259V49.077L719.848 38.0044L691.892 26.9318V20.9022Z" fill="#D65063"/>
</svg>
