<svg width="96" height="96" viewBox="0 0 96 96" fill="none" xmlns="http://www.w3.org/2000/svg">
<path fill-rule="evenodd" clip-rule="evenodd" d="M62.2061 41.2526C62.2061 39.7581 63.4338 37.9453 67.0275 37.9453L67.0158 37.9531C69.7896 37.9084 72.5238 38.6126 74.928 39.991C75.384 40.1269 75.6101 39.8978 75.6101 39.5368V33.3261C75.6216 33.1486 75.5854 32.9712 75.5053 32.8123C75.4251 32.6533 75.3039 32.5185 75.1541 32.4216C72.5527 31.4653 69.7862 31.0338 67.0158 31.1523C59.0568 31.1523 54.4653 35.9967 54.4653 41.8387C54.4653 47.0402 57.1469 50.1728 63.6053 53.251C68.2007 55.6072 69.2452 57.0551 69.2452 58.6854C69.2452 60.7233 67.7446 62.2177 64.151 62.2177C60.9101 62.22 57.737 61.2929 55.011 59.5471C54.6914 59.3181 54.4653 59.454 54.4653 59.9081V66.573C54.4653 66.9379 54.5082 67.1631 54.8278 67.2989C57.7305 68.6924 60.9309 69.3586 64.151 69.2398C71.654 69.2398 77.2004 65.3464 77.2004 58.0992C77.2004 53.251 74.9865 49.9476 67.846 46.5045C63.0246 44.0163 62.2061 42.8829 62.2061 41.2526ZM31.6017 43.4224C29.7815 43.4224 28.963 43.4224 27.9184 43.3332V25.8538C28.7369 25.8072 30.4636 25.7179 32.2838 25.7179C38.329 25.7179 41.9227 28.6137 41.9227 34.3664C41.9227 41.567 36.922 43.4224 31.6017 43.4224ZM20.8247 18.723C20.4583 18.723 19.823 18.9482 19.823 19.2665L19.8269 19.2859V67.9084C19.8269 68.3159 20.0101 68.4518 20.3725 68.4518H27.3299C27.7391 68.4518 27.8755 68.2694 27.8755 67.9084V50.5182C28.4372 50.5182 28.8659 50.5369 29.3311 50.5572C29.8827 50.5812 30.4856 50.6075 31.4224 50.6075C41.6966 50.6075 50.0649 45.67 50.0649 34.1684C50.0649 25.3802 45.1538 18.4979 32.5566 18.4979C28.6448 18.4889 24.7332 18.564 20.8247 18.723ZM96 0H0V95.9111V96H96V95.9111V0Z" fill="#F9F9F9"/>
</svg>
