<svg width="109" height="96" viewBox="0 0 109 96" fill="#FFF" xmlns="http://www.w3.org/2000/svg">
<path d="M89.6197 31.1155C88.4597 30.7216 87.2899 30.3566 86.1113 30.0209C86.3093 29.2201 86.4915 28.429 86.6533 27.6518C89.3093 14.8888 87.573 4.60674 81.6423 1.22139C75.956 -2.02404 66.6565 1.36005 57.2646 9.45128C56.339 10.2501 55.4339 11.072 54.5502 11.9161C53.9587 11.3548 53.3567 10.8044 52.7445 10.2652C42.9013 1.61379 33.0351 -2.03247 27.1108 1.36258C21.4296 4.61812 19.7473 14.284 22.1385 26.3797C22.3764 27.5777 22.645 28.7695 22.9441 29.9539C21.5475 30.3468 20.1999 30.7649 18.9102 31.2099C7.36985 35.193 0 41.4347 0 47.9091C0 54.596 7.91187 61.303 19.9317 65.3699C20.9061 65.6983 21.8887 66.0026 22.8785 66.2824C22.5571 67.5581 22.2717 68.8425 22.0227 70.134C19.743 82.0198 21.5232 91.4573 27.1891 94.6921C33.041 98.0328 42.863 94.5994 52.4264 86.3236C53.2019 85.6508 53.9604 84.9589 54.701 84.2486C55.6579 85.1626 56.6404 86.05 57.6474 86.9099C66.9115 94.8009 76.0607 97.9873 81.721 94.7436C87.5675 91.3932 89.4677 81.2548 87.0007 68.9201C86.8064 67.9538 86.5885 66.9922 86.3472 66.0363C87.0369 65.834 87.7139 65.6258 88.3739 65.4091C100.87 61.3111 109 54.6853 109 47.9091C109 41.4111 101.392 35.1272 89.6197 31.1155ZM86.9096 61.0341C86.3135 61.2293 85.7021 61.4177 85.0788 61.601C83.6992 57.2779 81.8377 52.6812 79.5594 47.9315C81.7334 43.2952 83.5234 38.757 84.8642 34.4621C85.9793 34.7816 87.0612 35.1184 88.1044 35.4737C98.1911 38.9113 104.344 43.9931 104.344 47.9091C104.344 52.0801 97.6989 57.4949 86.9096 61.0341ZM82.433 69.8153C83.5238 75.2693 83.6792 80.2007 82.9567 84.056C82.3078 87.5202 81.0023 89.8295 79.3878 90.7546C75.953 92.723 68.607 90.1646 60.6845 83.4158C59.7479 82.6164 58.834 81.7913 57.9437 80.9417C61.0153 77.6166 64.0848 73.7511 67.0806 69.4579C72.35 68.9951 77.3283 68.2381 81.8428 67.2051C82.0651 68.0931 82.2626 68.9639 82.433 69.8153ZM37.1605 90.4145C33.8045 91.5875 31.1314 91.6212 29.5156 90.699C26.0774 88.7362 24.6481 81.1583 26.5977 70.9938C26.8295 69.7927 27.0948 68.5982 27.3935 67.4116C31.8582 68.3894 36.8003 69.0925 42.0821 69.5165C45.0983 73.7174 48.2563 77.5786 51.4391 80.9598C50.7627 81.6077 50.0703 82.2389 49.3625 82.8531C45.1332 86.5124 40.8954 89.1087 37.1605 90.4145ZM21.4381 61.0084C16.1231 59.21 11.7337 56.8728 8.72511 54.3224C6.0214 52.0308 4.65677 49.7552 4.65677 47.9091C4.65677 43.9801 10.5739 38.9686 20.443 35.5626C21.6408 35.1496 22.8943 34.7597 24.195 34.3938C25.5592 38.7857 27.3484 43.3778 29.5075 48.0212C27.3203 52.7334 25.5056 57.3988 24.1282 61.8425C23.2247 61.5864 22.3277 61.3082 21.4381 61.0084ZM26.7084 25.4942C24.66 15.1312 26.0203 7.31393 29.444 5.35193C33.0904 3.26221 41.1539 6.24168 49.6529 13.7121C50.2071 14.2003 50.7523 14.6984 51.2883 15.2062C48.1214 18.5726 44.9923 22.4052 42.0029 26.5812C36.8765 27.0516 31.9694 27.8069 27.4578 28.8189C27.1798 27.7172 26.9299 26.6088 26.7084 25.4946V25.4942ZM73.7262 36.9872C72.6605 35.1651 71.5554 33.366 70.4114 31.591C73.8892 32.0264 77.2214 32.6042 80.3505 33.3106C79.4112 36.2914 78.2403 39.4074 76.862 42.6022C75.8546 40.7101 74.8091 38.838 73.7262 36.9872ZM54.5524 18.5005C56.7 20.8039 58.8511 23.3754 60.9668 26.1656C56.6749 25.965 52.3759 25.9641 48.0839 26.1631C50.2017 23.3986 52.3711 20.8305 54.5524 18.5005ZM35.2555 37.0188C34.1861 38.8548 33.1601 40.7151 32.1784 42.5984C30.8227 39.415 29.6625 36.2846 28.7151 33.2617C31.825 32.573 35.1414 32.0099 38.5971 31.5825C37.4404 33.3684 36.3263 35.1808 35.2555 37.0184V37.0188ZM38.6963 64.5636C35.1261 64.1691 31.7599 63.6351 28.6508 62.965C29.6131 59.8881 30.7989 56.6912 32.184 53.4394C33.1696 55.3241 34.1998 57.1856 35.2738 59.0224C36.3783 60.9106 37.522 62.7601 38.6963 64.5636ZM54.681 77.6423C52.4737 75.2853 50.2724 72.6776 48.1227 69.8731C50.2098 69.954 52.3375 69.9953 54.5 69.9953C56.7217 69.9953 58.9179 69.946 61.0796 69.8507C58.9571 72.7059 56.8141 75.3174 54.681 77.6423ZM76.9059 53.2734C78.3629 56.5609 79.5909 59.741 80.5659 62.7652C77.4058 63.4792 73.9935 64.0541 70.3982 64.481C71.5503 62.6731 72.6659 60.8427 73.7445 58.9908C74.841 57.1084 75.8951 55.2021 76.9059 53.2734ZM69.711 56.6878C68.0599 59.5271 66.316 62.3124 64.482 65.0395C61.1599 65.2724 57.8304 65.3881 54.5 65.3864C51.1078 65.3864 47.8084 65.2818 44.6312 65.0779C42.7494 62.3571 40.9722 59.5668 39.3034 56.7131H39.3039C37.643 53.8744 36.0916 50.9744 34.6531 48.0191C36.0879 45.0632 37.6346 42.1618 39.2898 39.321L39.2894 39.3214C40.944 36.4799 42.707 33.7015 44.5746 30.9925C47.8161 30.7497 51.1402 30.6232 54.4996 30.6232H54.5C57.8747 30.6232 61.2031 30.751 64.4437 30.9954C66.2925 33.7004 68.0442 36.4692 69.6957 39.2965C71.3564 42.1311 72.9236 45.0184 74.3946 47.9538C72.9387 50.9193 71.3765 53.8324 69.711 56.6878ZM79.3167 5.21452C82.9665 7.29834 84.386 15.7015 82.0928 26.7211C81.9463 27.4242 81.7819 28.1403 81.6031 28.8665C77.0805 27.833 72.1699 27.0647 67.0286 26.5871C64.0337 22.3651 60.9301 18.5267 57.8147 15.2037C58.6312 14.4246 59.4671 13.6657 60.3217 12.9277C68.369 5.99553 75.89 3.25842 79.3167 5.21452ZM54.5 38.274C59.8755 38.274 64.2334 42.5879 64.2334 47.9091C64.2334 53.2304 59.8755 57.5443 54.5 57.5443C49.1245 57.5443 44.7666 53.2304 44.7666 47.9091C44.7666 42.5879 49.1245 38.274 54.5 38.274Z" fill="#F9F9F9"/>
</svg>
