<svg width="131" height="96" viewBox="0 0 131 96" fill="none" xmlns="http://www.w3.org/2000/svg">
<path d="M112.801 55.1868C108.231 55.2099 104.259 56.2855 100.933 57.8755C99.7127 55.5138 98.4925 53.4098 98.2775 51.8664C98.0378 50.0663 97.751 48.9672 98.0378 46.816C98.3252 44.6649 99.6172 41.6017 99.5931 41.3681C99.5695 41.1344 99.3058 40.0353 96.6739 40.0122C94.042 39.9886 91.7688 40.5031 91.5056 41.181C91.2424 41.8589 90.74 43.4023 90.4049 44.9919C89.9503 47.3305 85.1412 55.6772 82.3897 60.0497C81.5041 58.3433 80.7385 56.8466 80.5707 55.6542C80.3316 53.854 80.0442 52.7549 80.3316 50.6038C80.6189 48.4527 81.911 45.39 81.8869 45.1558C81.8628 44.9222 81.5995 43.823 78.9676 43.8C76.3353 43.7764 74.0621 44.2909 73.7993 44.9688C73.5361 45.6472 73.2487 47.2367 72.6987 48.7801C72.1481 50.3235 65.7595 64.2591 64.0847 67.8594C63.4078 69.3166 62.6978 70.7589 61.9552 72.1852C61.9552 72.1852 61.931 72.2554 61.8592 72.3722C61.6259 72.8194 61.3867 73.2637 61.1418 73.705V73.728C60.7826 74.3598 60.3998 74.944 60.2084 74.944C60.0648 74.944 59.8015 73.2607 60.2562 70.9692C61.2132 66.1294 63.4863 58.6005 63.4627 58.3433C63.4627 58.2029 63.8933 56.8937 61.9793 56.2153C60.1125 55.5373 59.4428 56.6595 59.275 56.6595C59.1078 56.6595 58.9877 57.0572 58.9877 57.0572C58.9877 57.0572 61.07 48.5931 55.016 48.5931C51.2357 48.5931 46.0192 52.6381 43.4351 56.2855C40.4974 57.8476 37.5623 59.4142 34.6297 60.9853C33.2185 61.757 31.7587 62.5287 30.3947 63.2533C30.2988 63.16 30.2033 63.0427 30.1074 62.9494C22.7855 55.3037 9.24278 49.9023 9.81698 39.6381C10.0325 35.897 11.3482 26.0766 35.8263 14.1522C55.973 4.4486 72.0049 7.13724 74.7805 13.0997C78.7521 21.6109 66.1906 37.4168 45.3732 39.7078C37.4293 40.5733 33.2657 37.5803 32.2133 36.4581C31.1126 35.2888 30.9448 35.2186 30.5379 35.4527C29.8683 35.8037 30.2988 36.8557 30.5379 37.4635C31.1603 39.053 33.7204 41.8589 38.0512 43.2389C41.8797 44.4543 51.1875 45.1328 62.4575 40.8772C75.0673 36.1071 84.9257 22.8499 82.0306 11.7438C79.1349 0.473798 59.9929 -3.24377 41.8797 3.04561C31.1126 6.78725 19.4357 12.679 11.0372 20.3483C1.05929 29.4667 -0.520138 37.3933 0.1259 40.7137C2.44733 52.4977 19.077 60.167 25.7288 65.8486C25.3937 66.0357 25.0823 66.1996 24.8195 66.34C21.4934 67.9531 8.81175 74.4295 5.6534 81.2805C2.06453 89.0431 6.22811 94.6084 8.97954 95.356C17.5217 97.6711 26.303 93.5093 31.0167 86.6347C35.7303 79.7607 35.1561 70.8288 32.9789 66.7372C32.9548 66.6905 32.9312 66.6434 32.8829 66.5968C33.7445 66.1059 34.6297 65.5914 35.4912 65.1005C37.0747 64.1858 38.6783 63.3048 40.3008 62.458C39.487 64.6327 38.8887 67.2281 38.6018 70.9692C38.2426 75.3652 40.0848 81.0699 42.5017 83.3143C43.5787 84.2971 44.8467 84.3202 45.6605 84.3202C48.4838 84.3202 49.7523 82.0286 51.1639 79.3164C52.8865 75.9965 54.4418 72.1385 54.4418 72.1385C54.4418 72.1385 52.5037 82.5667 57.768 82.5667C59.682 82.5667 61.6201 80.1348 62.4816 78.8957V78.9188C62.4816 78.9188 62.5294 78.8486 62.6253 78.6851C62.8167 78.3813 62.9363 78.1937 62.9363 78.1937V78.1476C63.7019 76.8379 65.425 73.8684 67.985 68.9349C71.287 62.5753 74.4695 54.6257 74.4695 54.6257C74.4695 54.6257 74.7569 56.5663 75.7375 59.7929C76.3122 61.6868 77.5078 63.7677 78.4653 65.7784C77.6997 66.8309 77.2209 67.4151 77.2209 67.4151L77.245 67.4387C76.6226 68.2334 75.953 69.0984 75.211 69.9408C72.6027 72.9799 69.4926 76.4643 69.0616 77.4692C68.5587 78.6616 68.6788 79.527 69.6363 80.2285C70.33 80.743 71.5739 80.8127 72.8423 80.743C75.1874 80.579 76.8381 80.0179 77.6515 79.6674C78.9199 79.2232 80.4034 78.5447 81.7909 77.5394C84.3515 75.6921 85.9063 73.0501 85.7631 69.5667C85.6913 67.6493 85.0452 65.7318 84.2555 63.9312C84.4951 63.6043 84.7102 63.2768 84.9498 62.9494C88.9933 57.174 92.128 50.8375 92.128 50.8375C92.128 50.8375 92.4154 52.778 93.396 56.0052C93.8748 57.6418 94.8559 59.4189 95.7169 61.1488C91.9125 64.1654 89.5675 67.6723 88.7301 69.9638C87.223 74.2194 88.395 76.1364 90.6204 76.5807C91.6252 76.7912 93.0609 76.3234 94.1139 75.8792C95.4537 75.4585 97.0331 74.7339 98.5407 73.6578C101.101 71.8111 103.565 69.2388 103.422 65.7554C103.35 64.1654 102.919 62.5984 102.321 61.0786C105.551 59.7699 109.715 59.0448 115.026 59.6525C126.416 60.9618 128.665 67.906 128.234 70.8293C127.804 73.7516 125.411 75.3416 124.622 75.8325C123.832 76.3239 123.569 76.4874 123.641 76.8379C123.736 77.3523 124.119 77.3293 124.789 77.2355C125.723 77.072 130.771 74.8738 130.986 69.496C131.345 62.622 124.645 55.1166 112.801 55.1868ZM24.9391 84.1331C21.1583 88.1546 15.8946 89.6744 13.6214 88.3887C11.1809 87.0088 12.1379 81.0699 16.7797 76.8148C19.603 74.2194 23.2401 71.8106 25.657 70.3379C26.207 70.0105 27.0209 69.5431 28.002 68.9585C28.1693 68.8647 28.2652 68.8181 28.2652 68.8181L28.8394 68.4671C30.5379 74.5464 28.9113 79.9011 24.9391 84.1331ZM52.456 65.8486C51.1398 68.982 48.3884 77.0019 46.7135 76.5576C45.2777 76.1835 44.3921 70.1042 46.4261 64.0952C47.455 61.0786 49.6322 57.4779 50.9007 56.0754C52.9583 53.8305 55.2315 53.0819 55.7816 53.9944C56.4759 55.1868 53.2693 63.8846 52.456 65.8486ZM75.1633 76.4638C74.6127 76.7446 74.0867 76.9317 73.8471 76.7913C73.6798 76.6975 74.0867 76.3234 74.0867 76.3234C74.0867 76.3234 76.9341 73.3309 78.0584 71.9746C78.7049 71.1798 79.47 70.2446 80.2838 69.1922V69.496C80.2838 73.0737 76.7422 75.482 75.1628 76.4638H75.1633ZM92.6781 72.5592C92.2712 72.2784 92.343 71.3433 93.707 68.4205C94.2334 67.2747 95.4773 65.3577 97.6073 63.5105C97.8464 64.2586 98.0142 64.9837 97.9901 65.6616C97.966 70.1744 94.6645 71.8577 92.6781 72.5592Z" fill="#F9F9F9"/>
</svg>
