<svg width="376" height="385" viewBox="0 0 376 385" fill="none" xmlns="http://www.w3.org/2000/svg">
<path fill-rule="evenodd" clip-rule="evenodd" d="M364.053 36.2164C361.053 36.2315 358.445 36.9374 356.262 37.9808C356.134 37.7333 356.006 37.49 355.88 37.2519L355.88 37.2517C355.221 35.9991 354.637 34.8884 354.518 34.0374C354.492 33.8425 354.465 33.6601 354.439 33.4851L354.438 33.4756L354.437 33.4693L354.437 33.4652C354.307 32.5888 354.205 31.893 354.361 30.7231C354.488 29.7675 354.918 28.5376 355.178 27.7951L355.178 27.7943L355.178 27.7937L355.179 27.7917L355.18 27.789C355.303 27.4379 355.387 27.1971 355.382 27.1478C355.366 26.9945 355.193 26.2732 353.465 26.258C351.738 26.2426 350.245 26.5802 350.072 27.0251C349.9 27.47 349.57 28.4828 349.35 29.5259C349.051 31.0607 345.894 36.5382 344.088 39.4076C343.507 38.2878 343.004 37.3056 342.894 36.5231C342.867 36.32 342.839 36.1305 342.812 35.9487C342.683 35.0733 342.581 34.3777 342.737 33.2088C342.864 32.2534 343.294 31.0239 343.554 30.2814C343.678 29.9268 343.763 29.6832 343.758 29.6335C343.742 29.4802 343.569 28.7589 341.841 28.7438C340.113 28.7283 338.621 29.0659 338.448 29.5108C338.374 29.7028 338.296 30.006 338.203 30.37L338.203 30.3706L338.203 30.3711C338.081 30.851 337.931 31.4364 337.726 32.012C337.364 33.0248 333.17 42.1701 332.071 44.5327C331.626 45.489 331.16 46.4355 330.673 47.3715C330.673 47.3715 330.657 47.4176 330.61 47.4943C330.457 47.7878 330.3 48.0793 330.139 48.3689V48.3841C329.903 48.7987 329.652 49.182 329.526 49.182C329.432 49.182 329.259 48.0774 329.557 46.5736C329.977 44.4538 330.781 41.5479 331.265 39.7993L331.265 39.7987L331.265 39.7972C331.506 38.927 331.668 38.3439 331.663 38.2878C331.663 38.279 331.665 38.2632 331.669 38.2415L331.669 38.2409C331.703 38.034 331.824 37.2936 330.689 36.8913C329.709 36.5355 329.231 36.9353 329.023 37.1096C328.971 37.1533 328.935 37.1828 328.913 37.1828C328.804 37.1828 328.725 37.4438 328.725 37.4438C328.725 37.4438 330.092 31.8893 326.117 31.8893C323.636 31.8893 320.211 34.5438 318.515 36.9374C316.586 37.9625 314.659 38.9906 312.734 40.0217C311.929 40.4615 311.101 40.9013 310.31 41.3208L310.307 41.3227L310.304 41.3242L310.303 41.3244L309.954 41.51C309.922 41.4794 309.891 41.4448 309.859 41.4103C309.828 41.3757 309.797 41.3412 309.765 41.3106C308.28 39.7601 306.404 38.3502 304.533 36.9434C300.349 33.7976 296.184 30.6669 296.445 26.0126C296.586 23.5574 297.45 17.1128 313.52 9.28741C326.746 2.91943 337.27 4.68385 339.093 8.59671C341.7 14.1822 333.453 24.5548 319.787 26.0583C314.572 26.6263 311.839 24.6621 311.148 23.9257C310.425 23.1583 310.315 23.1122 310.048 23.2659C309.617 23.4918 309.88 24.1599 310.038 24.5618L310.048 24.5854C310.456 25.6285 312.137 27.47 314.98 28.3755C317.494 29.1732 323.604 29.6184 331.003 26.8257C339.281 23.6953 345.753 14.9953 343.852 7.70693C341.951 0.310967 329.385 -2.12869 317.494 1.99872C310.425 4.45417 302.759 8.32063 297.246 13.3536C290.695 19.3376 289.659 24.5394 290.083 26.7184C291.217 32.4732 297.553 36.7327 302.52 40.072L302.52 40.0722L302.521 40.073C304.228 41.2206 305.774 42.2596 306.891 43.2132C306.711 43.3132 306.543 43.4031 306.393 43.4828L306.294 43.5357C304.11 44.5943 295.785 48.8444 293.711 53.3404C291.355 58.4346 294.089 62.0868 295.895 62.5774C301.503 64.0967 307.268 61.3655 310.362 56.8541C313.457 52.343 313.08 46.4814 311.65 43.7963L311.649 43.7932C311.639 43.7753 311.63 43.7573 311.617 43.7394C311.609 43.7276 311.599 43.7159 311.587 43.7042C311.87 43.5431 312.157 43.3782 312.443 43.2132L312.445 43.212C312.731 43.0475 313.017 42.8829 313.3 42.7223C314.339 42.122 315.392 41.5438 316.457 40.9881C315.923 42.4152 315.53 44.1185 315.342 46.5736C315.106 49.4584 316.315 53.2022 317.902 54.675C318.609 55.32 319.441 55.3351 319.976 55.3351C321.829 55.3351 322.662 53.8313 323.589 52.0514C324.719 49.8727 325.74 47.3409 325.74 47.3409C325.74 47.3409 324.468 54.1844 327.924 54.1844C329.181 54.1844 330.453 52.5885 331.018 51.7754V51.7905C331.018 51.7905 331.05 51.7444 331.113 51.6372C331.238 51.4377 331.317 51.3147 331.317 51.3147V51.2844C331.82 50.4249 332.951 48.4762 334.631 45.2386C336.799 41.0651 338.888 35.8482 338.888 35.8482C338.888 35.8482 339.077 37.1216 339.721 39.2391C339.993 40.1366 340.478 41.098 340.963 42.0598C341.15 42.4301 341.337 42.8004 341.512 43.1671C341.009 43.8578 340.695 44.2412 340.695 44.2412L340.71 44.2567L340.614 44.3802L340.613 44.3807C340.232 44.8675 339.824 45.3894 339.375 45.8987C339.068 46.2562 338.751 46.623 338.435 46.9883C336.987 48.6606 335.57 50.2979 335.338 50.8392C335.008 51.6217 335.087 52.1896 335.715 52.65C336.171 52.9876 336.987 53.0334 337.82 52.9876C339.36 52.88 340.443 52.5118 340.977 52.2818C341.81 51.9902 342.784 51.545 343.695 50.8853C345.376 49.673 346.396 47.9392 346.302 45.6532C346.255 44.3949 345.831 43.1365 345.313 41.9549C345.392 41.8476 345.466 41.7402 345.541 41.6328L345.541 41.6325L345.541 41.6321L345.542 41.6318L345.542 41.6315L345.542 41.6312L345.542 41.6309L345.542 41.6306L345.608 41.5362L345.641 41.489L345.693 41.4152C345.718 41.3803 345.743 41.3455 345.769 41.3106C348.423 37.5205 350.481 33.3621 350.481 33.3621C350.481 33.3621 350.67 34.6356 351.313 36.7534C351.57 37.6314 352.048 38.5709 352.522 39.5048L352.522 39.5051L352.522 39.5054L352.522 39.5056C352.628 39.7139 352.734 39.9219 352.837 40.1289C350.34 42.1086 348.8 44.41 348.25 45.9138C347.261 48.7065 348.03 49.9645 349.491 50.2561C350.151 50.3943 351.093 50.0873 351.785 49.7957C352.664 49.5197 353.701 49.0442 354.691 48.338C356.372 47.1261 357.989 45.438 357.895 43.152C357.848 42.1086 357.565 41.0802 357.173 40.0829C359.293 39.224 362.026 38.7482 365.513 39.147C372.991 40.0062 374.467 44.5633 374.184 46.4818C373.902 48.3995 372.331 49.443 371.813 49.7651C371.294 50.0876 371.122 50.1949 371.169 50.4249C371.231 50.7625 371.483 50.7474 371.923 50.6858C372.535 50.5786 375.85 49.136 375.991 45.6068C376.227 41.0957 371.828 36.1703 364.053 36.2164ZM306.372 55.2124C303.89 57.8515 300.435 58.8488 298.942 58.0051C297.34 57.0996 297.968 53.2022 301.016 50.4098C302.869 48.7065 305.257 47.1257 306.844 46.1593C306.996 46.0688 307.178 45.962 307.387 45.84L307.39 45.8384L307.392 45.837C307.678 45.67 308.012 45.4748 308.383 45.254C308.493 45.1925 308.556 45.1619 308.556 45.1619L308.933 44.9316C310.048 48.9211 308.98 52.4351 306.372 55.2124ZM323.898 44.5589C322.955 46.9596 321.572 50.4809 320.667 50.241C319.724 49.9955 319.143 46.0059 320.478 42.0625C321.154 40.0829 322.583 37.7199 323.416 36.7995C324.767 35.3263 326.259 34.835 326.62 35.4339C327.076 36.2164 324.971 41.9243 324.437 43.2132C324.287 43.5689 324.11 44.0205 323.912 44.5227L323.91 44.529L323.907 44.5369L323.906 44.5381L323.904 44.5427L323.902 44.5502L323.901 44.5512L323.899 44.5559L323.898 44.5589ZM339.344 50.1794C338.982 50.3637 338.637 50.4864 338.48 50.3943C338.37 50.3328 338.637 50.0873 338.637 50.0873C338.637 50.0873 340.506 48.1234 341.244 47.2333L341.353 47.1006L341.354 47.0989L341.356 47.0969C341.755 46.6058 342.217 46.0387 342.705 45.4074V45.6068C342.705 47.9546 340.38 49.5351 339.343 50.1794H339.344ZM350.842 47.617C350.575 47.4328 350.622 46.8191 351.518 44.901C351.863 44.1491 352.68 42.8911 354.078 41.6788C354.235 42.1698 354.345 42.6456 354.329 43.0905C354.314 46.052 352.146 47.1567 350.842 47.617ZM100 13L105.087 69.8523L127.914 76.1667L150.802 69.8432L155.896 13H100ZM128.143 57.055L128.175 57.0459V64.3422L128.143 64.3513L113.711 60.3628L112.724 49.3549H119.797L120.298 54.9473L128.143 57.055ZM144.535 38.9029H128.175V45.8975H136.841L136.026 54.9694L128.175 57.0739V64.3513L142.604 60.3754L142.709 59.1942L144.362 40.7811L144.535 38.9029ZM118.822 38.8065H128.175V45.7194H112.357L110.621 26.6716L110.452 24.8153H128.175V31.7282H118.177L118.822 38.8065ZM128.175 31.6319H144.826L144.964 30.1014L145.279 26.6457L145.444 24.8153H128.175V31.6319ZM195.44 102.203L189.183 32H257.957L251.691 102.192L223.528 110L195.44 102.203ZM223.57 63.1751H234.963L235.749 54.3583L223.601 54.3584H202.802L202.63 52.4223L202.237 48.0571L202.031 45.7477L223.57 45.7477H245.159L244.953 48.057L242.838 71.7857H242.837L241.373 88.1544L241.242 89.6086L223.623 94.4918V94.4948L223.581 94.5059L205.944 89.6086L204.738 76.0896H213.382L213.995 82.9563L223.584 85.5471L223.592 85.5446V85.5414L233.194 82.9507L234.198 71.7857H223.57L223.57 71.7856H214.101L213.928 69.8495L213.538 65.4843L213.332 63.1749H223.57L223.57 63.1751ZM280 102H361.6V189H280V102ZM301.456 174.704L307.7 170.674C308.905 172.952 310.001 174.879 312.629 174.879C315.149 174.879 316.738 173.828 316.738 169.74V141.942H324.406V169.856C324.406 178.324 319.751 182.178 312.958 182.178C306.824 182.178 303.263 178.791 301.455 174.703L301.456 174.704ZM334.815 169.973L328.571 173.827L328.571 173.828C330.816 178.558 335.418 182.179 342.538 182.179C349.823 182.179 355.246 178.15 355.246 170.791C355.246 163.959 351.576 160.922 345.058 157.944L343.141 157.068C339.854 155.549 338.43 154.556 338.43 152.103C338.43 150.118 339.854 148.6 342.1 148.6C344.291 148.6 345.715 149.592 347.03 152.103L353 148.015C350.481 143.285 346.975 141.474 342.1 141.474C335.253 141.474 330.872 146.146 330.872 152.278C330.872 158.936 334.541 162.09 340.074 164.6L341.991 165.477C345.496 167.111 347.578 168.105 347.578 170.908C347.578 173.244 345.552 174.937 342.374 174.937C338.595 174.937 336.459 172.835 334.815 169.973ZM252.111 245.021C253.29 245.357 254.46 245.722 255.62 246.116C267.392 250.127 275 256.411 275 262.909C275 269.685 266.87 276.311 254.374 280.409C253.714 280.626 253.037 280.834 252.347 281.036C252.588 281.992 252.806 282.954 253.001 283.92C255.468 296.255 253.567 306.393 247.721 309.744C242.061 312.987 232.912 309.801 223.647 301.91C222.64 301.05 221.658 300.163 220.701 299.249C219.96 299.959 219.202 300.651 218.426 301.324C208.863 309.599 199.041 313.033 193.189 309.692C187.523 306.457 185.743 297.02 188.023 285.134C188.272 283.843 188.557 282.558 188.879 281.282C187.889 281.003 186.906 280.698 185.932 280.37C173.912 276.303 166 269.596 166 262.909C166 256.435 173.37 250.193 184.91 246.21C186.2 245.765 187.548 245.347 188.944 244.954C188.645 243.77 188.376 242.578 188.138 241.38C185.747 229.284 187.43 219.618 193.111 216.363C199.035 212.968 208.901 216.614 218.745 225.265C219.357 225.804 219.959 226.355 220.55 226.916C221.434 226.072 222.339 225.25 223.265 224.451C232.656 216.36 241.956 212.976 247.642 216.221C253.573 219.607 255.309 229.889 252.653 242.652C252.492 243.429 252.309 244.22 252.111 245.021ZM251.079 276.601C251.702 276.418 252.314 276.229 252.91 276.034C263.699 272.495 270.344 267.08 270.344 262.909C270.344 258.993 264.191 253.911 254.104 250.474C253.061 250.118 251.979 249.782 250.864 249.462C249.523 253.757 247.733 258.295 245.559 262.931C247.838 267.681 249.699 272.278 251.079 276.601ZM248.957 299.056C249.679 295.201 249.524 290.269 248.433 284.815C248.263 283.964 248.065 283.093 247.843 282.205C243.328 283.238 238.35 283.995 233.081 284.458C230.085 288.751 227.015 292.617 223.944 295.942C224.834 296.791 225.748 297.616 226.684 298.416C234.607 305.165 241.953 307.723 245.388 305.755C247.002 304.83 248.308 302.52 248.957 299.056ZM195.516 305.699C197.131 306.621 199.804 306.588 203.16 305.415C206.895 304.109 211.133 301.512 215.363 297.853C216.07 297.239 216.763 296.608 217.439 295.96C214.256 292.579 211.098 288.717 208.082 284.517C202.8 284.093 197.858 283.389 193.393 282.412C193.095 283.598 192.829 284.793 192.598 285.994C190.648 296.158 192.077 303.736 195.516 305.699ZM174.725 269.322C177.734 271.873 182.123 274.21 187.438 276.008C188.328 276.308 189.225 276.586 190.128 276.843C191.506 272.399 193.32 267.733 195.507 263.021C193.348 258.378 191.559 253.786 190.195 249.394C188.894 249.76 187.641 250.15 186.443 250.563C176.574 253.969 170.657 258.98 170.657 262.909C170.657 264.755 172.021 267.031 174.725 269.322ZM195.444 220.352C192.02 222.314 190.66 230.131 192.708 240.494V240.495C192.93 241.609 193.18 242.717 193.458 243.819C197.969 242.807 202.876 242.052 208.003 241.581C210.992 237.405 214.121 233.573 217.288 230.206C216.752 229.698 216.207 229.2 215.653 228.712C207.154 221.242 199.09 218.262 195.444 220.352ZM236.411 246.591C237.555 248.366 238.661 250.165 239.726 251.987C240.809 253.838 241.855 255.71 242.862 257.602C244.24 254.407 245.411 251.291 246.35 248.311C243.221 247.604 239.889 247.026 236.411 246.591ZM226.967 241.166C224.851 238.375 222.7 235.804 220.552 233.501C218.371 235.831 216.202 238.399 214.084 241.163C218.376 240.964 222.675 240.965 226.967 241.166ZM198.178 257.598C199.16 255.715 200.186 253.855 201.256 252.019V252.018C202.326 250.181 203.44 248.368 204.597 246.583C201.141 247.01 197.825 247.573 194.715 248.262C195.662 251.285 196.823 254.415 198.178 257.598ZM194.651 277.965C197.76 278.635 201.126 279.169 204.696 279.564C203.522 277.76 202.378 275.911 201.274 274.022C200.2 272.186 199.17 270.324 198.184 268.439C196.799 271.691 195.613 274.888 194.651 277.965ZM214.123 284.873C216.272 287.678 218.474 290.285 220.681 292.642C222.814 290.317 224.957 287.706 227.08 284.851C224.918 284.946 222.722 284.995 220.5 284.995C218.337 284.995 216.21 284.954 214.123 284.873ZM246.566 277.765C245.591 274.741 244.363 271.561 242.906 268.273C241.895 270.202 240.841 272.108 239.744 273.991C238.666 275.843 237.55 277.673 236.398 279.481C239.994 279.054 243.406 278.479 246.566 277.765ZM230.482 280.04C232.316 277.312 234.06 274.527 235.711 271.688C237.376 268.832 238.939 265.919 240.395 262.954C238.924 260.018 237.356 257.131 235.696 254.297C234.044 251.469 232.292 248.7 230.444 245.995C227.203 245.751 223.875 245.623 220.5 245.623H220.5C217.14 245.623 213.816 245.75 210.575 245.992C208.707 248.702 206.944 251.48 205.289 254.321L205.29 254.321C203.635 257.162 202.088 260.063 200.653 263.019C202.092 265.974 203.643 268.874 205.304 271.713H205.303C206.972 274.567 208.749 277.357 210.631 280.078C213.808 280.282 217.108 280.386 220.5 280.386C223.83 280.388 227.16 280.272 230.482 280.04ZM248.093 241.721C250.386 230.701 248.966 222.298 245.317 220.215C241.89 218.258 234.369 220.996 226.322 227.928C225.467 228.666 224.631 229.425 223.815 230.204C226.93 233.527 230.034 237.365 233.029 241.587C238.17 242.065 243.08 242.833 247.603 243.867C247.782 243.14 247.946 242.424 248.093 241.721ZM230.233 262.909C230.233 257.588 225.875 253.274 220.5 253.274C215.125 253.274 210.767 257.588 210.767 262.909C210.767 268.23 215.125 272.544 220.5 272.544C225.875 272.544 230.233 268.23 230.233 262.909ZM5 113.877C5 118.364 8.63702 122 13.1233 122H59.8764C64.3635 122 68 118.363 68 113.877V67.1236C68 62.6366 64.363 59 59.8767 59H13.1236C8.63653 59 5 62.6371 5 67.1233V113.876V113.877ZM31.1248 86.8672V77.9456H38.9779C39.726 77.9456 40.4471 78.0078 41.1415 78.1326C41.836 78.2571 42.4505 78.4796 42.9848 78.8002C43.5188 79.1209 43.9463 79.5661 44.2669 80.1358C44.5874 80.7057 44.7478 81.4359 44.7478 82.326C44.7478 83.9288 44.2669 85.0865 43.3052 85.7987C42.3437 86.5111 41.115 86.8672 39.619 86.8672H31.1248ZM22.7372 71.4278V109.572H41.2218C42.9314 109.572 44.5965 109.359 46.217 108.931C47.8375 108.504 49.2799 107.845 50.5443 106.955C51.8085 106.064 52.8148 104.915 53.5626 103.509C54.3108 102.102 54.6846 100.437 54.6846 98.5136C54.6846 96.1272 54.1058 94.0883 52.9484 92.3967C51.7908 90.7048 50.0366 89.5206 47.6859 88.8438C49.3955 88.0248 50.6868 86.974 51.5594 85.6919C52.4318 84.4097 52.8682 82.8071 52.8682 80.8837C52.8682 79.1029 52.5743 77.6072 51.9866 76.3962C51.399 75.1854 50.5709 74.2148 49.5023 73.4846C48.434 72.7545 47.1519 72.229 45.6559 71.9086C44.1601 71.588 42.5039 71.4278 40.6875 71.4278H22.7372ZM31.1248 103.055V92.5835H40.26C42.0765 92.5835 43.5368 93.0018 44.641 93.839C45.745 94.676 46.2972 96.0738 46.2972 98.0327C46.2972 99.0301 46.1279 99.8491 45.7895 100.49C45.4511 101.131 44.9971 101.639 44.4271 102.013C43.8574 102.387 43.1984 102.654 42.4505 102.814C41.7024 102.974 40.9191 103.055 40.0998 103.055H31.1248ZM124.5 123C105.439 123 90 138.83 90 158.374C89.9961 165.799 92.2729 173.038 96.5074 179.062C100.742 185.087 106.719 189.591 113.591 191.936C115.316 192.244 115.961 191.182 115.961 190.252C115.961 189.961 115.956 189.437 115.949 188.752L115.949 188.749V188.749L115.949 188.747L115.949 188.746L115.949 188.744L115.949 188.742L115.949 188.739C115.935 187.449 115.916 185.596 115.916 183.666C107.25 185.303 105.008 181.501 104.318 179.509C103.928 178.49 102.248 175.353 100.781 174.511C99.5738 173.849 97.8488 172.212 100.736 172.169C103.455 172.123 105.394 174.734 106.043 175.795C109.148 181.143 114.109 179.64 116.089 178.713C116.393 176.414 117.296 174.868 118.29 173.984C110.614 173.1 102.593 170.047 102.593 156.516C102.593 152.668 103.928 149.488 106.129 147.008C105.784 146.124 104.576 142.498 106.474 137.634C106.474 137.634 109.361 136.707 115.961 141.263C118.77 140.464 121.672 140.062 124.586 140.068C127.519 140.068 130.451 140.464 133.211 141.26C139.808 136.661 142.699 137.638 142.699 137.638C144.596 142.501 143.389 146.127 143.044 147.012C145.241 149.488 146.58 152.625 146.58 156.516C146.58 170.093 138.517 173.1 130.841 173.984C132.09 175.088 133.17 177.21 133.17 180.528C133.17 183.671 133.15 186.405 133.137 188.236L133.137 188.243C133.13 189.164 133.125 189.856 133.125 190.256C133.125 191.182 133.774 192.286 135.499 191.932C142.347 189.562 148.298 185.049 152.514 179.029C156.729 173.009 158.998 165.785 159 158.374C159 138.83 143.561 123 124.5 123ZM210.127 134.169L235.887 161.238C237.371 162.797 237.371 165.327 235.887 166.887L210.247 193.831C208.762 195.39 206.357 195.39 204.874 193.831L179.113 166.761C177.629 165.202 177.629 162.673 179.113 161.113L196.776 142.553L203.465 149.583C202.78 151.309 203.102 153.372 204.44 154.777C204.862 155.223 205.365 155.576 205.919 155.813V172.836C205.366 173.076 204.863 173.428 204.44 173.873C202.674 175.728 202.674 178.735 204.44 180.593C206.204 182.449 209.066 182.449 210.833 180.593C212.599 178.735 212.599 175.728 210.833 173.873C210.483 173.507 210.079 173.204 209.637 172.974L209.638 156.109L215.737 162.518C215.064 164.237 215.392 166.288 216.721 167.685C218.488 169.542 221.349 169.542 223.116 167.685C224.882 165.829 224.882 162.822 223.116 160.967C221.852 159.636 220.027 159.266 218.445 159.839L211.905 152.966C212.451 151.304 212.096 149.387 210.833 148.058C209.576 146.737 207.768 146.361 206.191 146.921L199.405 139.791L204.754 134.169C206.239 132.61 208.645 132.61 210.127 134.169ZM125 294C130.891 294 135.667 288.628 135.667 282C135.667 275.373 130.891 270 125 270C119.12 270 114.352 275.352 114.333 281.962V270H103.667C100.838 270 98.1246 271.264 96.1242 273.515C94.1238 275.765 93 278.818 93 282C93 285.183 94.1238 288.235 96.1242 290.485C98.1191 292.73 100.823 293.993 103.643 294C100.823 294.007 98.1191 295.271 96.1242 297.515C94.1238 299.765 93 302.817 93 306C93 309.183 94.1238 312.235 96.1242 314.485C98.1246 316.736 100.838 318 103.667 318C106.496 318 109.209 316.736 111.209 314.485C113.21 312.235 114.333 309.183 114.333 306V294V282.039C114.352 288.648 119.12 294 125 294ZM114.333 270H103.667C100.838 270 98.1246 268.736 96.1242 266.485C94.1238 264.235 93 261.183 93 258C93 254.817 94.1238 251.765 96.1242 249.515C98.1246 247.264 100.838 246 103.667 246H114.333H125C127.829 246 130.542 247.264 132.542 249.515C134.543 251.765 135.667 254.817 135.667 258C135.667 261.183 134.543 264.235 132.542 266.485C130.542 268.736 127.829 270 125 270H114.333ZM308 290V229H369V290H308ZM328.278 261.164L333.918 272.787H339.549L331.551 257.419L339.103 242.828H333.936L328.638 254.285L323.296 242.856H317.791L325.337 257.891L317.533 272.76H322.836L328.278 261.164ZM350.997 273.176C353.327 273.176 355.768 272.677 358.098 271.567C358.197 271.509 358.255 271.479 358.287 271.432C358.331 271.364 358.321 271.26 358.293 270.984C358.256 270.607 358.186 269.909 358.181 268.543V242.856H353.244V250.485C346.024 249.899 340.874 254.212 340.678 261.941C340.678 269.486 344.977 273.204 350.997 273.176ZM353.244 268.571V254.84C349.187 253.696 345.717 256.437 345.698 261.719C345.675 266.87 348.37 269.836 353.244 268.571ZM44.0627 227.221C44.0627 226.162 44.9324 224.878 47.4779 224.878L47.4696 224.883C49.4344 224.852 51.3711 225.351 53.0741 226.327C53.3971 226.423 53.5572 226.261 53.5572 226.005V221.606C53.5654 221.48 53.5397 221.355 53.483 221.242C53.4262 221.129 53.3403 221.034 53.2342 220.965C51.3916 220.288 49.432 219.982 47.4696 220.066C41.832 220.066 38.5797 223.498 38.5797 227.636C38.5797 231.32 40.4792 233.539 45.0539 235.719C48.3089 237.388 49.0488 238.414 49.0488 239.569C49.0488 241.012 47.9859 242.071 45.4404 242.071C43.1447 242.072 40.8971 241.416 38.9662 240.179C38.7398 240.017 38.5797 240.113 38.5797 240.435V245.156C38.5797 245.414 38.6101 245.574 38.8364 245.67C40.8925 246.657 43.1595 247.129 45.4404 247.045C50.755 247.045 54.6837 244.287 54.6837 239.154C54.6837 235.719 53.1155 233.38 48.0577 230.941C44.6425 229.178 44.0627 228.375 44.0627 227.221ZM22.3846 228.758C21.0953 228.758 20.5155 228.758 19.7756 228.694V216.313C20.3554 216.28 21.5784 216.217 22.8678 216.217C27.1498 216.217 29.6953 218.268 29.6953 222.343C29.6953 227.443 26.1532 228.758 22.3846 228.758ZM14.7509 211.262C14.4914 211.262 14.0414 211.422 14.0414 211.647L14.0441 211.661V246.102C14.0441 246.39 14.1739 246.487 14.4306 246.487H19.3587C19.6486 246.487 19.7452 246.357 19.7452 246.102V233.784C20.1428 233.784 20.4464 233.797 20.7756 233.811L20.7763 233.811H20.7764H20.7766C21.1672 233.828 21.5942 233.847 22.2576 233.847C29.5352 233.847 35.4627 230.35 35.4627 222.203C35.4627 215.978 31.984 211.103 23.061 211.103C20.2901 211.096 17.5195 211.149 14.7509 211.262ZM68 198H0V265.937V266H68V265.937V198ZM151.331 345.548H145.81L145.81 346.726L138.516 370.64H142.747L144.762 363.492H152.499L154.474 370.64H159.27L151.331 345.548ZM148.671 349.197L151.411 359.805L145.85 359.804L148.671 349.197ZM163.138 351.992H167.491V370.64H163.138V351.992ZM162.705 347.128C162.705 345.813 163.848 344.747 165.258 344.747C166.668 344.747 167.811 345.813 167.811 347.128C167.811 348.443 166.668 349.509 165.258 349.509C163.848 349.509 162.705 348.443 162.705 347.128ZM128 385H181V335H128V385Z" fill="#F9F9F9"/>
</svg>
