<svg width="376" height="385" viewBox="0 0 376 385" fill="none" xmlns="http://www.w3.org/2000/svg">
<path fill-rule="evenodd" clip-rule="evenodd" d="M356.262 37.9808C358.445 36.9374 361.053 36.2315 364.053 36.2164C371.828 36.1703 376.227 41.0957 375.991 45.6068C375.85 49.136 372.535 50.5786 371.923 50.6858C371.483 50.7474 371.231 50.7625 371.169 50.4249C371.122 50.1949 371.294 50.0876 371.813 49.7651C372.331 49.443 373.902 48.3995 374.184 46.4818C374.467 44.5633 372.991 40.0062 365.513 39.147C362.026 38.7482 359.293 39.224 357.173 40.0829C357.565 41.0802 357.848 42.1086 357.895 43.152C357.989 45.438 356.372 47.1261 354.691 48.338C353.701 49.0442 352.664 49.5197 351.785 49.7957C351.093 50.0873 350.151 50.3943 349.491 50.2561C348.03 49.9645 347.261 48.7065 348.25 45.9138C348.8 44.41 350.34 42.1086 352.837 40.1289C352.734 39.922 352.628 39.714 352.523 39.5057C352.048 38.5716 351.57 37.6317 351.313 36.7534C350.67 34.6356 350.481 33.3621 350.481 33.3621C350.481 33.3621 348.423 37.5205 345.769 41.3106C345.743 41.3455 345.718 41.3803 345.693 41.4152L345.641 41.489L345.608 41.5362L345.542 41.6306L345.542 41.6309L345.542 41.6312L345.542 41.6315L345.542 41.6318L345.541 41.6321L345.541 41.6325L345.541 41.6328C345.466 41.7402 345.392 41.8476 345.313 41.9549C345.831 43.1365 346.255 44.3949 346.302 45.6532C346.396 47.9392 345.376 49.673 343.695 50.8853C342.784 51.545 341.81 51.9902 340.977 52.2818C340.443 52.5118 339.36 52.88 337.82 52.9876C336.987 53.0334 336.171 52.9876 335.715 52.65C335.087 52.1896 335.008 51.6217 335.338 50.8392C335.57 50.2979 336.987 48.6605 338.435 46.9882C338.751 46.623 339.068 46.2561 339.375 45.8987C339.823 45.3907 340.23 44.8702 340.611 44.3844L340.612 44.383L340.613 44.3807L340.614 44.3801L340.71 44.2567L340.695 44.2412C340.695 44.2412 341.009 43.8578 341.512 43.1671C341.337 42.8004 341.15 42.4301 340.963 42.0598C340.478 41.098 339.993 40.1366 339.721 39.2391C339.077 37.1216 338.888 35.8482 338.888 35.8482C338.888 35.8482 336.799 41.0651 334.631 45.2386C332.951 48.4762 331.82 50.4249 331.317 51.2844V51.3147C331.317 51.3147 331.238 51.4377 331.113 51.6372C331.05 51.7444 331.018 51.7905 331.018 51.7905V51.7754C330.453 52.5885 329.181 54.1844 327.924 54.1844C324.468 54.1844 325.74 47.3409 325.74 47.3409C325.74 47.3409 324.719 49.8727 323.589 52.0514C322.662 53.8313 321.829 55.3351 319.976 55.3351C319.441 55.3351 318.609 55.32 317.902 54.675C316.315 53.2022 315.106 49.4584 315.342 46.5736C315.53 44.1185 315.923 42.4152 316.457 40.9881C315.392 41.5438 314.339 42.122 313.3 42.7223C313.017 42.8834 312.73 43.0484 312.443 43.2134C312.157 43.3782 311.87 43.5431 311.587 43.7042C311.601 43.717 311.611 43.7299 311.62 43.7429C311.632 43.7607 311.641 43.7786 311.65 43.7963C313.08 46.4814 313.457 52.343 310.362 56.8541C307.268 61.3655 301.503 64.0967 295.895 62.5774C294.089 62.0868 291.355 58.4346 293.711 53.3404C295.785 48.8444 304.11 44.5943 306.294 43.5357L306.393 43.483C306.542 43.4032 306.711 43.3132 306.891 43.2132C305.774 42.2596 304.228 41.2206 302.521 40.073L302.52 40.0722L302.52 40.072C297.553 36.7327 291.217 32.4732 290.083 26.7184C289.659 24.5394 290.695 19.3376 297.246 13.3536C302.759 8.32063 310.425 4.45417 317.494 1.99872C329.385 -2.12869 341.951 0.310967 343.852 7.70693C345.753 14.9953 339.281 23.6953 331.003 26.8257C323.604 29.6184 317.494 29.1732 314.98 28.3755C312.137 27.47 310.456 25.6285 310.048 24.5854L310.038 24.5618C309.88 24.1599 309.617 23.4918 310.048 23.2659C310.315 23.1122 310.425 23.1583 311.148 23.9257C311.839 24.6621 314.572 26.6263 319.787 26.0583C333.453 24.5548 341.7 14.1822 339.093 8.59671C337.27 4.68385 326.746 2.91943 313.52 9.28741C297.45 17.1128 296.586 23.5574 296.445 26.0126C296.184 30.6669 300.349 33.7976 304.533 36.9434C306.404 38.3502 308.28 39.7601 309.765 41.3106C309.78 41.3253 309.795 41.3409 309.81 41.3569C309.827 41.3741 309.843 41.3918 309.859 41.4094L309.859 41.4103C309.891 41.4448 309.922 41.4794 309.954 41.51L310.302 41.3249C311.095 40.9041 311.927 40.4629 312.734 40.0217C314.659 38.9906 316.586 37.9625 318.515 36.9374C320.211 34.5438 323.636 31.8893 326.117 31.8893C330.092 31.8893 328.725 37.4438 328.725 37.4438C328.725 37.4438 328.804 37.1828 328.913 37.1828C328.935 37.1828 328.971 37.1533 329.023 37.1097C329.231 36.9353 329.709 36.5355 330.689 36.8913C331.824 37.2936 331.703 38.034 331.669 38.2409L331.669 38.2415C331.665 38.2632 331.663 38.279 331.663 38.2878C331.668 38.3439 331.506 38.927 331.265 39.7973L331.265 39.7987L331.265 39.7992C330.781 41.5478 329.977 44.4538 329.557 46.5736C329.259 48.0774 329.432 49.182 329.526 49.182C329.652 49.182 329.903 48.7987 330.139 48.3841V48.3689C330.3 48.0793 330.457 47.7878 330.61 47.4943C330.657 47.4176 330.673 47.3715 330.673 47.3715C331.16 46.4355 331.626 45.489 332.071 44.5327C333.17 42.1701 337.364 33.0248 337.726 32.012C337.931 31.4364 338.081 30.851 338.203 30.3711L338.203 30.3706L338.203 30.37C338.296 30.006 338.374 29.7028 338.448 29.5108C338.621 29.0659 340.113 28.7283 341.841 28.7438C343.569 28.7589 343.742 29.4802 343.758 29.6335C343.763 29.6832 343.678 29.9268 343.554 30.2814C343.294 31.024 342.864 32.2534 342.737 33.2088C342.581 34.3777 342.683 35.0733 342.812 35.9487C342.839 36.1305 342.867 36.32 342.894 36.5231C343.004 37.3056 343.507 38.2878 344.088 39.4076C345.894 36.5382 349.051 31.0607 349.35 29.5259C349.57 28.4828 349.9 27.47 350.072 27.0251C350.245 26.5802 351.738 26.2426 353.465 26.258C355.193 26.2732 355.366 26.9945 355.382 27.1478C355.387 27.1972 355.302 27.4393 355.179 27.7919L355.178 27.7938L355.178 27.7943L355.178 27.7951C354.918 28.5376 354.488 29.7675 354.361 30.7231C354.205 31.893 354.307 32.5888 354.437 33.4652L354.437 33.4694C354.464 33.6492 354.491 33.8367 354.518 34.0374C354.637 34.8884 355.221 35.9991 355.88 37.2517L355.88 37.252C356.006 37.4901 356.134 37.7333 356.262 37.9808ZM298.942 58.0051C300.435 58.8488 303.89 57.8515 306.372 55.2124C308.98 52.4351 310.048 48.9211 308.933 44.9316L308.556 45.1619C308.556 45.1619 308.493 45.1925 308.383 45.254C308.011 45.4756 307.676 45.6714 307.389 45.8387L307.387 45.8402C307.178 45.9621 306.996 46.0688 306.844 46.1593C305.257 47.1257 302.869 48.7065 301.016 50.4098C297.968 53.2022 297.34 57.0996 298.942 58.0051ZM320.667 50.241C321.572 50.4809 322.955 46.9595 323.898 44.5589L323.899 44.5558C324.102 44.0403 324.284 43.5767 324.437 43.2132C324.971 41.9243 327.076 36.2164 326.62 35.4339C326.259 34.835 324.767 35.3263 323.416 36.7995C322.583 37.7199 321.154 40.0829 320.478 42.0625C319.143 46.0059 319.724 49.9955 320.667 50.241ZM338.48 50.3943C338.637 50.4864 338.982 50.3637 339.344 50.1794H339.343C340.38 49.5351 342.705 47.9546 342.705 45.6068V45.4074C342.215 46.041 341.752 46.6098 341.351 47.1022L341.244 47.2333C340.506 48.1234 338.637 50.0873 338.637 50.0873C338.637 50.0873 338.37 50.3328 338.48 50.3943ZM351.518 44.901C350.622 46.8191 350.575 47.4328 350.842 47.617C352.146 47.1567 354.314 46.052 354.329 43.0905C354.345 42.6456 354.235 42.1698 354.078 41.6788C352.68 42.8911 351.863 44.1491 351.518 44.901ZM105.087 69.8523L100 13H155.896L150.802 69.8432L127.914 76.1667L105.087 69.8523ZM128.175 57.0459L128.143 57.055L120.298 54.9473L119.797 49.3549H112.724L113.711 60.3628L128.143 64.3513L128.175 64.3422V57.0459ZM128.175 38.9029H144.535L144.362 40.7811L142.709 59.1942L142.604 60.3754L128.175 64.3513V57.0739L136.026 54.9694L136.841 45.8975H128.175V38.9029ZM128.175 38.8065H118.822L118.177 31.7282H128.175V24.8153H110.452L110.621 26.6716L112.357 45.7194H128.175V38.8065ZM144.826 31.6319H128.175V24.8153H145.444L145.279 26.6457L144.964 30.1014L144.826 31.6319ZM189.183 32L195.44 102.203L223.528 110L251.691 102.192L257.957 32H189.183ZM234.963 63.1751H223.57L223.57 63.1749H213.332L213.538 65.4843L213.928 69.8495L214.101 71.7856H223.57L223.57 71.7857H234.198L233.194 82.9507L223.592 85.5414V85.5446L223.584 85.5471L213.995 82.9563L213.382 76.0896H204.738L205.944 89.6086L223.581 94.5059L223.623 94.4948V94.4918L241.242 89.6086L241.373 88.1544L242.837 71.7857H242.838L244.953 48.057L245.159 45.7477H223.57L202.031 45.7477L202.237 48.0571L202.63 52.4223L202.802 54.3584H223.601L235.749 54.3583L234.963 63.1751ZM361.6 102H280V189H361.6V102ZM307.7 170.674L301.456 174.704L301.455 174.703C303.263 178.791 306.824 182.178 312.958 182.178C319.751 182.178 324.406 178.324 324.406 169.856V141.942H316.738V169.74C316.738 173.828 315.149 174.879 312.629 174.879C310.001 174.879 308.905 172.952 307.7 170.674ZM328.571 173.827L334.815 169.973C336.459 172.835 338.595 174.937 342.374 174.937C345.552 174.937 347.578 173.244 347.578 170.908C347.578 168.105 345.496 167.111 341.991 165.477L340.074 164.6C334.541 162.09 330.872 158.936 330.872 152.278C330.872 146.146 335.253 141.474 342.1 141.474C346.975 141.474 350.481 143.285 353 148.015L347.03 152.103C345.715 149.592 344.291 148.6 342.1 148.6C339.854 148.6 338.43 150.118 338.43 152.103C338.43 154.556 339.854 155.549 343.141 157.068L345.058 157.944C351.576 160.922 355.246 163.959 355.246 170.791C355.246 178.15 349.823 182.179 342.538 182.179C335.418 182.179 330.816 178.558 328.571 173.828L328.571 173.827ZM255.62 246.116C254.46 245.722 253.29 245.357 252.111 245.021C252.309 244.22 252.492 243.429 252.653 242.652C255.309 229.889 253.573 219.607 247.642 216.221C241.956 212.976 232.656 216.36 223.265 224.451C222.339 225.25 221.434 226.072 220.55 226.916C219.959 226.355 219.357 225.804 218.745 225.265C208.901 216.614 199.035 212.968 193.111 216.363C187.43 219.618 185.747 229.284 188.138 241.38C188.376 242.578 188.645 243.77 188.944 244.954C187.548 245.347 186.2 245.765 184.91 246.21C173.37 250.193 166 256.435 166 262.909C166 269.596 173.912 276.303 185.932 280.37C186.906 280.698 187.889 281.003 188.879 281.282C188.557 282.558 188.272 283.843 188.023 285.134C185.743 297.02 187.523 306.457 193.189 309.692C199.041 313.033 208.863 309.599 218.426 301.324C219.202 300.651 219.96 299.959 220.701 299.249C221.658 300.163 222.64 301.05 223.647 301.91C232.912 309.801 242.061 312.987 247.721 309.744C253.567 306.393 255.468 296.255 253.001 283.92C252.806 282.954 252.588 281.992 252.347 281.036C253.037 280.834 253.714 280.626 254.374 280.409C266.87 276.311 275 269.685 275 262.909C275 256.411 267.392 250.127 255.62 246.116ZM252.91 276.034C252.314 276.229 251.702 276.418 251.079 276.601C249.699 272.278 247.838 267.681 245.559 262.931C247.733 258.295 249.523 253.757 250.864 249.462C251.979 249.782 253.061 250.118 254.104 250.474C264.191 253.911 270.344 258.993 270.344 262.909C270.344 267.08 263.699 272.495 252.91 276.034ZM248.433 284.815C249.524 290.269 249.679 295.201 248.957 299.056C248.308 302.52 247.002 304.829 245.388 305.755C241.953 307.723 234.607 305.165 226.684 298.416C225.748 297.616 224.834 296.791 223.944 295.942C227.015 292.617 230.085 288.751 233.081 284.458C238.35 283.995 243.328 283.238 247.843 282.205C248.065 283.093 248.263 283.964 248.433 284.815ZM203.16 305.415C199.804 306.588 197.131 306.621 195.516 305.699C192.077 303.736 190.648 296.158 192.598 285.994C192.829 284.793 193.095 283.598 193.393 282.412C197.858 283.389 202.8 284.092 208.082 284.517C211.098 288.717 214.256 292.579 217.439 295.96C216.763 296.608 216.07 297.239 215.363 297.853C211.133 301.512 206.895 304.109 203.16 305.415ZM187.438 276.008C182.123 274.21 177.734 271.873 174.725 269.322C172.021 267.031 170.657 264.755 170.657 262.909C170.657 258.98 176.574 253.969 186.443 250.563C187.641 250.15 188.894 249.76 190.195 249.394C191.559 253.786 193.348 258.378 195.507 263.021C193.32 267.733 191.506 272.399 190.128 276.843C189.225 276.586 188.328 276.308 187.438 276.008ZM192.708 240.494C190.66 230.131 192.02 222.314 195.444 220.352C199.09 218.262 207.154 221.242 215.653 228.712C216.207 229.2 216.752 229.698 217.288 230.206C214.121 233.573 210.992 237.405 208.003 241.581C202.876 242.052 197.969 242.807 193.458 243.819C193.18 242.717 192.93 241.609 192.708 240.495V240.494ZM239.726 251.987C238.661 250.165 237.555 248.366 236.411 246.591C239.889 247.026 243.221 247.604 246.35 248.311C245.411 251.291 244.24 254.407 242.862 257.602C241.855 255.71 240.809 253.838 239.726 251.987ZM220.552 233.501C222.7 235.804 224.851 238.375 226.967 241.166C222.675 240.965 218.376 240.964 214.084 241.163C216.202 238.399 218.371 235.831 220.552 233.501ZM201.256 252.019C200.186 253.855 199.16 255.715 198.178 257.598C196.823 254.415 195.662 251.285 194.715 248.262C197.825 247.573 201.141 247.01 204.597 246.583C203.44 248.368 202.326 250.181 201.256 252.018V252.019ZM204.696 279.564C201.126 279.169 197.76 278.635 194.651 277.965C195.613 274.888 196.799 271.691 198.184 268.439C199.17 270.324 200.2 272.186 201.274 274.022C202.378 275.911 203.522 277.76 204.696 279.564ZM220.681 292.642C218.474 290.285 216.272 287.678 214.123 284.873C216.21 284.954 218.337 284.995 220.5 284.995C222.722 284.995 224.918 284.946 227.08 284.851C224.957 287.706 222.814 290.317 220.681 292.642ZM242.906 268.273C244.363 271.561 245.591 274.741 246.566 277.765C243.406 278.479 239.994 279.054 236.398 279.481C237.55 277.673 238.666 275.843 239.744 273.991C240.841 272.108 241.895 270.202 242.906 268.273ZM235.711 271.688C234.06 274.527 232.316 277.312 230.482 280.04C227.16 280.272 223.83 280.388 220.5 280.386C217.108 280.386 213.808 280.282 210.631 280.078C208.749 277.357 206.972 274.567 205.303 271.713H205.304C203.643 268.874 202.092 265.974 200.653 263.019C202.088 260.063 203.635 257.162 205.29 254.321L205.289 254.321C206.944 251.48 208.707 248.702 210.575 245.992C213.816 245.75 217.14 245.623 220.5 245.623H220.5C223.875 245.623 227.203 245.751 230.444 245.995C232.292 248.7 234.044 251.469 235.696 254.297C237.356 257.131 238.924 260.018 240.395 262.954C238.939 265.919 237.376 268.832 235.711 271.688ZM245.317 220.215C248.966 222.298 250.386 230.701 248.093 241.721C247.946 242.424 247.782 243.14 247.603 243.867C243.08 242.833 238.17 242.065 233.029 241.587C230.034 237.365 226.93 233.527 223.815 230.204C224.631 229.425 225.467 228.666 226.322 227.928C234.369 220.996 241.89 218.258 245.317 220.215ZM220.5 253.274C225.875 253.274 230.233 257.588 230.233 262.909C230.233 268.23 225.875 272.544 220.5 272.544C215.125 272.544 210.767 268.23 210.767 262.909C210.767 257.588 215.125 253.274 220.5 253.274ZM13.1233 122C8.63702 122 5 118.364 5 113.877V113.876V67.1233C5 62.6371 8.63653 59 13.1236 59H59.8767C64.363 59 68 62.6366 68 67.1236V113.877C68 118.363 64.3635 122 59.8764 122H13.1233ZM31.1248 77.9456V86.8672H39.619C41.115 86.8672 42.3437 86.5111 43.3052 85.7987C44.2669 85.0865 44.7478 83.9288 44.7478 82.326C44.7478 81.4359 44.5874 80.7057 44.2669 80.1358C43.9463 79.5661 43.5188 79.1209 42.9848 78.8002C42.4505 78.4796 41.836 78.2571 41.1415 78.1326C40.4471 78.0078 39.726 77.9456 38.9779 77.9456H31.1248ZM22.7372 109.572V71.4278H40.6875C42.5039 71.4278 44.1601 71.588 45.6559 71.9086C47.1519 72.229 48.434 72.7545 49.5023 73.4846C50.5709 74.2148 51.399 75.1854 51.9866 76.3962C52.5743 77.6072 52.8682 79.1029 52.8682 80.8837C52.8682 82.8071 52.4318 84.4097 51.5594 85.6919C50.6868 86.974 49.3955 88.0248 47.6859 88.8438C50.0366 89.5206 51.7908 90.7048 52.9484 92.3967C54.1058 94.0883 54.6846 96.1272 54.6846 98.5136C54.6846 100.437 54.3108 102.102 53.5626 103.509C52.8148 104.915 51.8085 106.064 50.5443 106.955C49.2799 107.845 47.8375 108.504 46.217 108.931C44.5965 109.359 42.9314 109.572 41.2218 109.572H22.7372ZM31.1248 92.5835V103.055H40.0998C40.9191 103.055 41.7024 102.974 42.4505 102.814C43.1984 102.654 43.8574 102.387 44.4271 102.013C44.9971 101.639 45.4511 101.131 45.7895 100.49C46.1279 99.8491 46.2972 99.0301 46.2972 98.0327C46.2972 96.0738 45.745 94.676 44.641 93.839C43.5368 93.0018 42.0765 92.5835 40.26 92.5835H31.1248ZM90 158.374C90 138.83 105.439 123 124.5 123C143.561 123 159 138.83 159 158.374C158.998 165.785 156.729 173.009 152.514 179.029C148.298 185.049 142.347 189.562 135.499 191.932C133.774 192.286 133.125 191.182 133.125 190.256C133.125 189.856 133.13 189.164 133.137 188.243L133.137 188.236C133.15 186.405 133.17 183.671 133.17 180.528C133.17 177.21 132.09 175.088 130.841 173.984C138.517 173.1 146.58 170.093 146.58 156.516C146.58 152.625 145.241 149.488 143.044 147.012C143.389 146.127 144.596 142.501 142.699 137.638C142.699 137.638 139.808 136.661 133.211 141.26C130.451 140.464 127.519 140.068 124.586 140.068C121.672 140.062 118.77 140.464 115.961 141.263C109.361 136.707 106.474 137.634 106.474 137.634C104.576 142.498 105.784 146.124 106.129 147.008C103.928 149.488 102.593 152.668 102.593 156.516C102.593 170.047 110.614 173.1 118.29 173.984C117.296 174.868 116.393 176.414 116.089 178.713C114.109 179.64 109.147 181.143 106.043 175.795C105.394 174.734 103.455 172.123 100.736 172.169C97.8488 172.212 99.5738 173.849 100.781 174.511C102.248 175.353 103.928 178.49 104.318 179.509C105.007 181.501 107.25 185.303 115.916 183.666C115.916 185.596 115.935 187.449 115.949 188.739L115.949 188.742L115.949 188.744L115.949 188.746L115.949 188.747L115.949 188.749V188.749L115.949 188.752C115.956 189.437 115.961 189.962 115.961 190.252C115.961 191.182 115.316 192.244 113.591 191.936C106.719 189.591 100.742 185.087 96.5074 179.062C92.2729 173.038 89.9961 165.799 90 158.374ZM235.887 161.238L210.127 134.169C208.645 132.61 206.239 132.61 204.754 134.169L199.405 139.791L206.191 146.921C207.768 146.361 209.576 146.737 210.833 148.058C212.096 149.387 212.451 151.304 211.905 152.966L218.445 159.839C220.027 159.266 221.852 159.636 223.116 160.967C224.882 162.822 224.882 165.829 223.116 167.685C221.349 169.542 218.488 169.542 216.721 167.685C215.392 166.288 215.064 164.237 215.737 162.518L209.638 156.109L209.637 172.974C210.079 173.204 210.483 173.507 210.833 173.873C212.599 175.728 212.599 178.735 210.833 180.593C209.066 182.449 206.204 182.449 204.44 180.593C202.674 178.735 202.674 175.728 204.44 173.873C204.863 173.428 205.366 173.076 205.919 172.836V155.813C205.365 155.576 204.862 155.223 204.44 154.777C203.102 153.372 202.78 151.309 203.465 149.583L196.776 142.553L179.113 161.113C177.629 162.673 177.629 165.202 179.113 166.761L204.874 193.831C206.357 195.39 208.762 195.39 210.247 193.831L235.887 166.887C237.371 165.327 237.371 162.797 235.887 161.238ZM135.667 282C135.667 288.628 130.891 294 125 294C119.12 294 114.352 288.648 114.333 282.039V294V306C114.333 309.183 113.209 312.235 111.209 314.485C109.209 316.736 106.496 318 103.667 318C100.838 318 98.1246 316.736 96.1242 314.485C94.1238 312.235 93 309.183 93 306C93 302.817 94.1238 299.765 96.1242 297.515C98.1177 295.272 100.819 294.009 103.638 294C100.819 293.991 98.1177 292.728 96.1242 290.485C94.1238 288.235 93 285.183 93 282C93 278.818 94.1238 275.765 96.1242 273.515C98.1246 271.264 100.838 270 103.667 270H114.333V281.962C114.352 275.352 119.12 270 125 270C130.891 270 135.667 275.373 135.667 282ZM103.667 270H114.333H125C127.829 270 130.542 268.736 132.542 266.485C134.543 264.235 135.667 261.183 135.667 258C135.667 254.817 134.543 251.765 132.542 249.515C130.542 247.264 127.829 246 125 246H114.333H103.667C100.838 246 98.1246 247.264 96.1242 249.515C94.1238 251.765 93 254.817 93 258C93 261.183 94.1238 264.235 96.1242 266.485C98.1246 268.736 100.838 270 103.667 270ZM308 229V290H369V229H308ZM333.918 272.787L328.278 261.164L322.836 272.76H317.533L325.337 257.891L317.791 242.856H323.296L328.638 254.285L333.936 242.828H339.103L331.551 257.419L339.549 272.787H333.918ZM358.098 271.567C355.768 272.677 353.327 273.176 350.997 273.176C344.977 273.204 340.678 269.486 340.678 261.941C340.874 254.212 346.024 249.899 353.244 250.485V242.856H358.181V268.543C358.186 269.909 358.256 270.607 358.293 270.984C358.321 271.26 358.331 271.364 358.287 271.432C358.255 271.479 358.197 271.509 358.098 271.567ZM353.244 254.84V268.571C348.37 269.836 345.675 266.87 345.698 261.719C345.717 256.437 349.187 253.696 353.244 254.84ZM47.4779 224.878C44.9324 224.878 44.0627 226.162 44.0627 227.221C44.0627 228.375 44.6425 229.178 48.0577 230.941C53.1155 233.38 54.6837 235.719 54.6837 239.154C54.6837 244.287 50.755 247.045 45.4404 247.045C43.1595 247.129 40.8925 246.657 38.8364 245.67C38.6101 245.574 38.5797 245.414 38.5797 245.156V240.435C38.5797 240.113 38.7398 240.017 38.9662 240.179C40.8971 241.416 43.1447 242.072 45.4404 242.071C47.9859 242.071 49.0488 241.012 49.0488 239.569C49.0488 238.414 48.3089 237.388 45.0539 235.719C40.4792 233.539 38.5797 231.32 38.5797 227.636C38.5797 223.498 41.832 220.066 47.4696 220.066C49.432 219.982 51.3916 220.288 53.2342 220.965C53.3403 221.034 53.4262 221.129 53.483 221.242C53.5397 221.355 53.5654 221.48 53.5572 221.606V226.005C53.5572 226.261 53.3971 226.423 53.0741 226.327C51.3711 225.351 49.4344 224.852 47.4696 224.883L47.4779 224.878ZM19.7756 228.694C20.5155 228.758 21.0953 228.758 22.3846 228.758C26.1532 228.758 29.6953 227.443 29.6953 222.343C29.6953 218.268 27.1498 216.217 22.8678 216.217C21.5784 216.217 20.3554 216.28 19.7756 216.313V228.694ZM14.0414 211.647C14.0414 211.422 14.4914 211.262 14.7509 211.262C17.5195 211.149 20.2901 211.096 23.061 211.103C31.984 211.103 35.4627 215.978 35.4627 222.203C35.4627 230.35 29.5352 233.847 22.2576 233.847C21.5942 233.847 21.1672 233.828 20.7766 233.811H20.7764H20.7763L20.7756 233.811C20.4464 233.797 20.1428 233.784 19.7452 233.784V246.102C19.7452 246.357 19.6486 246.487 19.3587 246.487H14.4306C14.1739 246.487 14.0441 246.39 14.0441 246.102V211.661L14.0414 211.647ZM0 198H68V265.937V266H0V265.937V198ZM145.81 345.548H151.331L159.27 370.64H154.474L152.499 363.492H144.762L142.747 370.64H138.516L145.81 346.726L145.81 345.548ZM151.411 359.805L148.671 349.197L145.85 359.804L151.411 359.805ZM167.491 351.992H163.138V370.64H167.491V351.992ZM165.258 344.747C163.848 344.747 162.705 345.813 162.705 347.128C162.705 348.443 163.848 349.509 165.258 349.509C166.668 349.509 167.811 348.443 167.811 347.128C167.811 345.813 166.668 344.747 165.258 344.747ZM181 385H128V335H181V385ZM276.812 315.625H266.75L295.5 367.375L324.25 315.625H314.188L295.5 350.125L276.812 315.625ZM288.312 315.625H279.688L295.5 344.605L311.312 315.625H302.688L295.5 328.793L288.312 315.625Z" fill="white"/>
</svg>
