<svg width="556" height="327" viewBox="0 0 556 327" fill="none" xmlns="http://www.w3.org/2000/svg">
<path fill-rule="evenodd" clip-rule="evenodd" d="M179 0H172V60.2808C164.597 61.685 159 68.1888 159 76C159 83.8112 164.597 90.315 172 91.7192V243.281C164.597 244.685 159 251.189 159 259C159 266.811 164.597 273.315 172 274.719V327H179V274.496C185.901 272.72 191 266.455 191 259C191 251.545 185.901 245.28 179 243.504V91.4959C185.901 89.7198 191 83.4554 191 76C191 68.5446 185.901 62.2802 179 60.5041V0ZM217.296 63H219.252L221.688 56.688H230.196L232.608 63H234.576L226.788 43.2H225.096L217.296 63ZM222.3 55.08L225.936 45.6L229.572 55.08H222.3ZM238.455 63H240.207V54.996C240.207 54.42 240.347 53.888 240.627 53.4C240.915 52.904 241.327 52.508 241.863 52.212C242.399 51.908 243.043 51.756 243.795 51.756C244.867 51.756 245.699 52.092 246.291 52.764C246.891 53.436 247.191 54.404 247.191 55.668V63H248.943V55.332C248.943 53.748 248.531 52.52 247.707 51.648C246.891 50.768 245.771 50.328 244.347 50.328C243.331 50.328 242.467 50.528 241.755 50.928C241.051 51.328 240.535 51.816 240.207 52.392V50.712H238.455V63ZM259.121 63.384C260.209 63.384 261.197 63.12 262.085 62.592C262.973 62.064 263.681 61.336 264.209 60.408V63H265.961V50.712H264.209V53.268C263.745 52.348 263.057 51.628 262.145 51.108C261.241 50.588 260.233 50.328 259.121 50.328C257.953 50.328 256.905 50.612 255.977 51.18C255.057 51.74 254.329 52.512 253.793 53.496C253.265 54.48 253.001 55.596 253.001 56.844C253.001 58.108 253.269 59.232 253.805 60.216C254.349 61.2 255.081 61.976 256.001 62.544C256.921 63.104 257.961 63.384 259.121 63.384ZM259.553 61.86C258.641 61.86 257.825 61.644 257.105 61.212C256.393 60.78 255.833 60.188 255.425 59.436C255.017 58.684 254.813 57.824 254.813 56.856C254.813 55.88 255.017 55.016 255.425 54.264C255.833 53.512 256.393 52.924 257.105 52.5C257.817 52.068 258.633 51.852 259.553 51.852C260.473 51.852 261.289 52.068 262.001 52.5C262.713 52.924 263.269 53.512 263.669 54.264C264.077 55.016 264.281 55.88 264.281 56.856C264.281 57.824 264.077 58.688 263.669 59.448C263.261 60.2 262.701 60.792 261.989 61.224C261.285 61.648 260.473 61.86 259.553 61.86ZM271.127 63H272.879V42.36H271.127V63ZM278.905 48.252C279.225 48.252 279.497 48.14 279.721 47.916C279.945 47.692 280.057 47.42 280.057 47.1C280.057 46.78 279.945 46.512 279.721 46.296C279.497 46.072 279.225 45.96 278.905 45.96C278.585 45.96 278.313 46.072 278.089 46.296C277.873 46.512 277.765 46.78 277.765 47.1C277.765 47.42 277.873 47.692 278.089 47.916C278.313 48.14 278.585 48.252 278.905 48.252ZM288.147 63.384C289.483 63.384 290.571 63.024 291.411 62.304C292.259 61.584 292.683 60.608 292.683 59.376C292.683 58.656 292.535 58.088 292.239 57.672C291.943 57.248 291.527 56.9 290.991 56.628C290.455 56.348 289.831 56.076 289.119 55.812C288.623 55.62 288.159 55.428 287.727 55.236C287.303 55.044 286.959 54.816 286.695 54.552C286.431 54.28 286.299 53.936 286.299 53.52C286.299 52.952 286.507 52.492 286.923 52.14C287.347 51.788 287.895 51.612 288.567 51.612C289.663 51.612 290.579 52.096 291.315 53.064L292.119 52.044C291.639 51.5 291.095 51.08 290.487 50.784C289.887 50.488 289.243 50.34 288.555 50.34C287.803 50.34 287.131 50.484 286.539 50.772C285.947 51.052 285.483 51.44 285.147 51.936C284.811 52.424 284.643 52.984 284.643 53.616C284.643 54.24 284.799 54.756 285.111 55.164C285.431 55.564 285.835 55.896 286.323 56.16C286.811 56.424 287.315 56.66 287.835 56.868C288.499 57.124 289.059 57.352 289.515 57.552C289.971 57.752 290.315 57.992 290.547 58.272C290.787 58.552 290.907 58.94 290.907 59.436C290.907 60.236 290.635 60.868 290.091 61.332C289.547 61.796 288.895 62.028 288.135 62.028C287.383 62.028 286.699 61.812 286.083 61.38C285.467 60.94 284.967 60.328 284.583 59.544L283.647 60.552C284.079 61.456 284.683 62.156 285.459 62.652C286.235 63.14 287.131 63.384 288.147 63.384ZM302.598 63.384C303.822 63.384 304.934 63.12 305.934 62.592C306.942 62.064 307.738 61.324 308.322 60.372L307.026 59.676C306.002 61.18 304.55 61.932 302.67 61.932C301.694 61.932 300.826 61.724 300.066 61.308C299.306 60.884 298.71 60.304 298.278 59.568C297.854 58.824 297.642 57.976 297.642 57.024H308.706C308.722 56.936 308.73 56.86 308.73 56.796C308.733 56.7667 308.736 56.7349 308.738 56.7006C308.741 56.6599 308.742 56.6157 308.742 56.568C308.71 55.344 308.414 54.264 307.854 53.328C307.302 52.384 306.55 51.648 305.598 51.12C304.654 50.592 303.574 50.328 302.358 50.328C301.47 50.328 300.634 50.496 299.85 50.832C299.074 51.168 298.39 51.636 297.798 52.236C297.206 52.836 296.742 53.536 296.406 54.336C296.07 55.128 295.902 55.984 295.902 56.904C295.902 58.128 296.19 59.232 296.766 60.216C297.35 61.192 298.146 61.964 299.154 62.532C300.162 63.1 301.31 63.384 302.598 63.384ZM297.738 55.704C297.842 54.928 298.106 54.248 298.53 53.664C298.962 53.072 299.51 52.612 300.174 52.284C300.838 51.948 301.574 51.78 302.382 51.78C303.174 51.78 303.898 51.948 304.554 52.284C305.21 52.62 305.754 53.084 306.186 53.676C306.618 54.268 306.886 54.944 306.99 55.704H297.738ZM324.793 63.384C326.017 63.384 327.129 63.12 328.129 62.592C329.137 62.064 329.933 61.324 330.517 60.372L329.221 59.676C328.197 61.18 326.745 61.932 324.865 61.932C323.889 61.932 323.021 61.724 322.261 61.308C321.501 60.884 320.905 60.304 320.473 59.568C320.049 58.824 319.837 57.976 319.837 57.024H330.901C330.917 56.936 330.925 56.86 330.925 56.796C330.933 56.732 330.937 56.656 330.937 56.568C330.905 55.344 330.609 54.264 330.049 53.328C329.497 52.384 328.745 51.648 327.793 51.12C326.849 50.592 325.769 50.328 324.553 50.328C323.665 50.328 322.829 50.496 322.045 50.832C321.269 51.168 320.585 51.636 319.993 52.236C319.401 52.836 318.937 53.536 318.601 54.336C318.265 55.128 318.097 55.984 318.097 56.904C318.097 58.128 318.385 59.232 318.961 60.216C319.545 61.192 320.341 61.964 321.349 62.532C322.357 63.1 323.505 63.384 324.793 63.384ZM319.933 55.704C320.037 54.928 320.301 54.248 320.725 53.664C321.157 53.072 321.705 52.612 322.369 52.284C323.033 51.948 323.769 51.78 324.577 51.78C325.369 51.78 326.093 51.948 326.749 52.284C327.405 52.62 327.949 53.084 328.381 53.676C328.813 54.268 329.081 54.944 329.185 55.704H319.933ZM341.876 63H346.34C347.748 63 349.056 62.752 350.264 62.256C351.48 61.752 352.54 61.052 353.444 60.156C354.356 59.252 355.064 58.2 355.568 57C356.072 55.8 356.324 54.504 356.324 53.112C356.324 51.72 356.068 50.424 355.556 49.224C355.052 48.016 354.344 46.964 353.432 46.068C352.528 45.164 351.472 44.46 350.264 43.956C349.056 43.452 347.748 43.2 346.34 43.2H341.876V63ZM343.7 61.368V44.832H346.172C347.332 44.832 348.412 45.044 349.412 45.468C350.412 45.884 351.284 46.468 352.028 47.22C352.78 47.972 353.364 48.848 353.78 49.848C354.196 50.848 354.404 51.932 354.404 53.1C354.404 54.268 354.196 55.356 353.78 56.364C353.364 57.364 352.78 58.24 352.028 58.992C351.284 59.736 350.412 60.32 349.412 60.744C348.412 61.16 347.332 61.368 346.172 61.368H343.7ZM366.652 63.384C367.876 63.384 368.988 63.12 369.988 62.592C370.996 62.064 371.792 61.324 372.376 60.372L371.08 59.676C370.056 61.18 368.604 61.932 366.724 61.932C365.748 61.932 364.88 61.724 364.12 61.308C363.36 60.884 362.764 60.304 362.332 59.568C361.908 58.824 361.696 57.976 361.696 57.024H372.76C372.776 56.936 372.784 56.86 372.784 56.796C372.792 56.732 372.796 56.656 372.796 56.568C372.764 55.344 372.468 54.264 371.908 53.328C371.356 52.384 370.604 51.648 369.652 51.12C368.708 50.592 367.628 50.328 366.412 50.328C365.524 50.328 364.688 50.496 363.904 50.832C363.128 51.168 362.444 51.636 361.852 52.236C361.26 52.836 360.796 53.536 360.46 54.336C360.124 55.128 359.956 55.984 359.956 56.904C359.956 58.128 360.244 59.232 360.82 60.216C361.404 61.192 362.2 61.964 363.208 62.532C364.216 63.1 365.364 63.384 366.652 63.384ZM278.029 63H279.781V50.712H278.029V63ZM361.792 55.704C361.896 54.928 362.16 54.248 362.584 53.664C363.016 53.072 363.564 52.612 364.228 52.284C364.892 51.948 365.628 51.78 366.436 51.78C367.228 51.78 367.952 51.948 368.608 52.284C369.264 52.62 369.808 53.084 370.24 53.676C370.672 54.268 370.94 54.944 371.044 55.704H361.792ZM380.022 63.384C381.358 63.384 382.446 63.024 383.286 62.304C384.134 61.584 384.558 60.608 384.558 59.376C384.558 58.656 384.41 58.088 384.114 57.672C383.818 57.248 383.402 56.9 382.866 56.628C382.33 56.348 381.706 56.076 380.994 55.812C380.498 55.62 380.034 55.428 379.602 55.236C379.178 55.044 378.834 54.816 378.57 54.552C378.306 54.28 378.174 53.936 378.174 53.52C378.174 52.952 378.382 52.492 378.798 52.14C379.222 51.788 379.77 51.612 380.442 51.612C381.538 51.612 382.454 52.096 383.19 53.064L383.994 52.044C383.514 51.5 382.97 51.08 382.362 50.784C381.762 50.488 381.118 50.34 380.43 50.34C379.678 50.34 379.006 50.484 378.414 50.772C377.822 51.052 377.358 51.44 377.022 51.936C376.686 52.424 376.518 52.984 376.518 53.616C376.518 54.24 376.674 54.756 376.986 55.164C377.306 55.564 377.71 55.896 378.198 56.16C378.686 56.424 379.19 56.66 379.71 56.868C380.374 57.124 380.934 57.352 381.39 57.552C381.846 57.752 382.19 57.992 382.422 58.272C382.662 58.552 382.782 58.94 382.782 59.436C382.782 60.236 382.51 60.868 381.966 61.332C381.422 61.796 380.77 62.028 380.01 62.028C379.258 62.028 378.574 61.812 377.958 61.38C377.342 60.94 376.842 60.328 376.458 59.544L375.522 60.552C375.954 61.456 376.558 62.156 377.334 62.652C378.11 63.14 379.006 63.384 380.022 63.384ZM394.473 63.384C395.697 63.384 396.809 63.12 397.809 62.592C398.817 62.064 399.613 61.324 400.197 60.372L398.901 59.676C397.877 61.18 396.425 61.932 394.545 61.932C393.569 61.932 392.701 61.724 391.941 61.308C391.181 60.884 390.585 60.304 390.153 59.568C389.729 58.824 389.517 57.976 389.517 57.024H400.581C400.597 56.936 400.605 56.86 400.605 56.796C400.607 56.7794 400.609 56.7619 400.61 56.7436C400.612 56.7196 400.614 56.6941 400.615 56.6673C400.616 56.6361 400.617 56.603 400.617 56.568C400.585 55.344 400.289 54.264 399.729 53.328C399.177 52.384 398.425 51.648 397.473 51.12C396.529 50.592 395.449 50.328 394.233 50.328C393.345 50.328 392.509 50.496 391.725 50.832C390.949 51.168 390.265 51.636 389.673 52.236C389.081 52.836 388.617 53.536 388.281 54.336C387.945 55.128 387.777 55.984 387.777 56.904C387.777 58.128 388.065 59.232 388.641 60.216C389.225 61.192 390.021 61.964 391.029 62.532C392.037 63.1 393.185 63.384 394.473 63.384ZM389.613 55.704C389.717 54.928 389.981 54.248 390.405 53.664C390.837 53.072 391.385 52.612 392.049 52.284C392.713 51.948 393.449 51.78 394.257 51.78C395.049 51.78 395.773 51.948 396.429 52.284C397.085 52.62 397.629 53.084 398.061 53.676C398.493 54.268 398.761 54.944 398.865 55.704H389.613ZM404.697 63H406.449V54.996C406.449 54.42 406.589 53.888 406.869 53.4C407.157 52.904 407.569 52.508 408.105 52.212C408.641 51.908 409.285 51.756 410.037 51.756C411.109 51.756 411.941 52.092 412.533 52.764C413.133 53.436 413.433 54.404 413.433 55.668V63H415.185V55.332C415.185 53.748 414.773 52.52 413.949 51.648C413.133 50.768 412.013 50.328 410.589 50.328C409.573 50.328 408.709 50.528 407.997 50.928C407.293 51.328 406.777 51.816 406.449 52.392V50.712H404.697V63ZM431.399 50.712H429.347L424.847 60.504L420.359 50.712H418.307L424.271 63H425.423L431.399 50.712ZM440.542 63.384C441.822 63.384 442.974 63.108 443.998 62.556C445.03 62.004 445.846 61.236 446.446 60.252C447.046 59.268 447.346 58.136 447.346 56.856C447.346 55.568 447.046 54.436 446.446 53.46C445.846 52.476 445.03 51.708 443.998 51.156C442.974 50.604 441.822 50.328 440.542 50.328C439.262 50.328 438.106 50.604 437.074 51.156C436.05 51.708 435.238 52.476 434.638 53.46C434.038 54.436 433.738 55.568 433.738 56.856C433.738 58.136 434.038 59.268 434.638 60.252C435.238 61.236 436.05 62.004 437.074 62.556C438.106 63.108 439.262 63.384 440.542 63.384ZM440.542 61.824C439.582 61.824 438.726 61.612 437.974 61.188C437.222 60.764 436.63 60.18 436.198 59.436C435.766 58.684 435.55 57.824 435.55 56.856C435.55 55.888 435.766 55.032 436.198 54.288C436.63 53.536 437.222 52.948 437.974 52.524C438.726 52.1 439.582 51.888 440.542 51.888C441.502 51.888 442.358 52.1 443.11 52.524C443.862 52.948 444.454 53.536 444.886 54.288C445.318 55.032 445.534 55.888 445.534 56.856C445.534 57.824 445.318 58.684 444.886 59.436C444.454 60.18 443.862 60.764 443.11 61.188C442.358 61.612 441.502 61.824 440.542 61.824ZM451.525 63H453.277V42.36H451.525V63ZM469.579 50.712H467.527L463.027 60.504L458.539 50.712H456.487L462.451 63H463.603L469.579 50.712ZM473.788 48.252C474.108 48.252 474.38 48.14 474.604 47.916C474.828 47.692 474.94 47.42 474.94 47.1C474.94 46.78 474.828 46.512 474.604 46.296C474.38 46.072 474.108 45.96 473.788 45.96C473.468 45.96 473.196 46.072 472.972 46.296C472.756 46.512 472.648 46.78 472.648 47.1C472.648 47.42 472.756 47.692 472.972 47.916C473.196 48.14 473.468 48.252 473.788 48.252ZM479.838 63H481.59V54.672C481.59 54.2 481.754 53.744 482.082 53.304C482.418 52.856 482.862 52.488 483.414 52.2C483.966 51.912 484.578 51.768 485.25 51.768C486.21 51.768 486.978 52.08 487.554 52.704C488.13 53.328 488.418 54.172 488.418 55.236V63H490.17V54.804C490.17 54.3 490.33 53.816 490.65 53.352C490.97 52.888 491.402 52.508 491.946 52.212C492.49 51.916 493.098 51.768 493.77 51.768C494.746 51.768 495.526 52.096 496.11 52.752C496.694 53.408 496.986 54.296 496.986 55.416V63H498.738V54.924C498.738 53.452 498.314 52.32 497.466 51.528C496.618 50.728 495.538 50.328 494.226 50.328C493.218 50.328 492.346 50.564 491.61 51.036C490.882 51.508 490.282 52.136 489.81 52.92C489.522 52.12 489.002 51.488 488.25 51.024C487.506 50.56 486.63 50.328 485.622 50.328C483.918 50.328 482.574 51.016 481.59 52.392V50.712H479.838V63ZM509.457 63.384C510.681 63.384 511.793 63.12 512.793 62.592C513.801 62.064 514.597 61.324 515.181 60.372L513.885 59.676C512.861 61.18 511.409 61.932 509.529 61.932C508.553 61.932 507.685 61.724 506.925 61.308C506.165 60.884 505.569 60.304 505.137 59.568C504.713 58.824 504.501 57.976 504.501 57.024H515.565C515.581 56.936 515.589 56.86 515.589 56.796C515.597 56.732 515.601 56.656 515.601 56.568C515.569 55.344 515.273 54.264 514.713 53.328C514.161 52.384 513.409 51.648 512.457 51.12C511.513 50.592 510.433 50.328 509.217 50.328C508.329 50.328 507.493 50.496 506.709 50.832C505.933 51.168 505.249 51.636 504.657 52.236C504.065 52.836 503.601 53.536 503.265 54.336C502.929 55.128 502.761 55.984 502.761 56.904C502.761 58.128 503.049 59.232 503.625 60.216C504.209 61.192 505.005 61.964 506.013 62.532C507.021 63.1 508.169 63.384 509.457 63.384ZM504.597 55.704C504.701 54.928 504.965 54.248 505.389 53.664C505.821 53.072 506.369 52.612 507.033 52.284C507.697 51.948 508.433 51.78 509.241 51.78C510.033 51.78 510.757 51.948 511.413 52.284C512.069 52.62 512.613 53.084 513.045 53.676C513.477 54.268 513.745 54.944 513.849 55.704H504.597ZM519.682 63H521.434V54.996C521.434 54.42 521.574 53.888 521.854 53.4C522.142 52.904 522.554 52.508 523.09 52.212C523.626 51.908 524.27 51.756 525.022 51.756C526.094 51.756 526.926 52.092 527.518 52.764C528.118 53.436 528.418 54.404 528.418 55.668V63H530.17V55.332C530.17 53.748 529.758 52.52 528.934 51.648C528.118 50.768 526.998 50.328 525.574 50.328C524.558 50.328 523.694 50.528 522.982 50.928C522.278 51.328 521.762 51.816 521.434 52.392V50.712H519.682V63ZM538.023 63.384C538.807 63.384 539.495 63.2 540.087 62.832L539.643 61.44C539.291 61.704 538.875 61.836 538.395 61.836C537.379 61.836 536.871 61.136 536.871 59.736V52.032H539.931V50.712H536.871V46.116H535.119V50.712H533.871V52.032H535.119V59.832C535.119 60.96 535.371 61.836 535.875 62.46C536.387 63.076 537.103 63.384 538.023 63.384ZM549.676 63.384C550.9 63.384 552.012 63.12 553.012 62.592C554.02 62.064 554.816 61.324 555.4 60.372L554.104 59.676C553.08 61.18 551.628 61.932 549.748 61.932C548.772 61.932 547.904 61.724 547.144 61.308C546.384 60.884 545.788 60.304 545.356 59.568C544.932 58.824 544.72 57.976 544.72 57.024H555.784C555.8 56.936 555.808 56.86 555.808 56.796C555.816 56.732 555.82 56.656 555.82 56.568C555.788 55.344 555.492 54.264 554.932 53.328C554.38 52.384 553.628 51.648 552.676 51.12C551.732 50.592 550.652 50.328 549.436 50.328C548.548 50.328 547.712 50.496 546.928 50.832C546.152 51.168 545.468 51.636 544.876 52.236C544.284 52.836 543.82 53.536 543.484 54.336C543.148 55.128 542.98 55.984 542.98 56.904C542.98 58.128 543.268 59.232 543.844 60.216C544.428 61.192 545.224 61.964 546.232 62.532C547.24 63.1 548.388 63.384 549.676 63.384ZM544.816 55.704C544.92 54.928 545.184 54.248 545.608 53.664C546.04 53.072 546.588 52.612 547.252 52.284C547.916 51.948 548.652 51.78 549.46 51.78C550.252 51.78 550.976 51.948 551.632 52.284C552.288 52.62 552.832 53.084 553.264 53.676C553.696 54.268 553.964 54.944 554.068 55.704H544.816ZM472.912 63H474.664V50.712H472.912V63ZM223.824 112.384C224.912 112.384 225.9 112.12 226.788 111.592C227.684 111.064 228.392 110.336 228.912 109.408V112H230.664V91.348H228.912V102.268C228.408 101.348 227.712 100.628 226.824 100.108C225.936 99.588 224.944 99.328 223.848 99.328C222.672 99.328 221.62 99.612 220.692 100.18C219.772 100.74 219.044 101.512 218.508 102.496C217.972 103.48 217.704 104.6 217.704 105.856C217.704 107.12 217.972 108.244 218.508 109.228C219.052 110.212 219.784 110.984 220.704 111.544C221.632 112.104 222.672 112.384 223.824 112.384ZM224.244 110.86C223.324 110.86 222.508 110.644 221.796 110.212C221.084 109.78 220.524 109.188 220.116 108.436C219.716 107.684 219.516 106.828 219.516 105.868C219.516 104.892 219.72 104.028 220.128 103.276C220.536 102.516 221.096 101.924 221.808 101.5C222.52 101.068 223.336 100.852 224.256 100.852C225.176 100.852 225.988 101.068 226.692 101.5C227.404 101.924 227.964 102.516 228.372 103.276C228.78 104.028 228.984 104.892 228.984 105.868C228.984 106.836 228.78 107.696 228.372 108.448C227.964 109.2 227.404 109.792 226.692 110.224C225.98 110.648 225.164 110.86 224.244 110.86ZM241.59 112.384C242.814 112.384 243.926 112.12 244.926 111.592C245.934 111.064 246.73 110.324 247.314 109.372L246.018 108.676C244.994 110.18 243.542 110.932 241.662 110.932C240.686 110.932 239.818 110.724 239.058 110.308C238.298 109.884 237.702 109.304 237.27 108.568C236.846 107.824 236.634 106.976 236.634 106.024H247.698C247.714 105.936 247.722 105.86 247.722 105.796C247.73 105.732 247.734 105.656 247.734 105.568C247.702 104.344 247.406 103.264 246.846 102.328C246.294 101.384 245.542 100.648 244.59 100.12C243.646 99.592 242.566 99.328 241.35 99.328C240.462 99.328 239.626 99.496 238.842 99.832C238.066 100.168 237.382 100.636 236.79 101.236C236.198 101.836 235.734 102.536 235.398 103.336C235.062 104.128 234.894 104.984 234.894 105.904C234.894 107.128 235.182 108.232 235.758 109.216C236.342 110.192 237.138 110.964 238.146 111.532C239.154 112.1 240.302 112.384 241.59 112.384ZM236.73 104.704C236.834 103.928 237.098 103.248 237.522 102.664C237.954 102.072 238.502 101.612 239.166 101.284C239.83 100.948 240.566 100.78 241.374 100.78C242.166 100.78 242.89 100.948 243.546 101.284C244.202 101.62 244.746 102.084 245.178 102.676C245.61 103.268 245.878 103.944 245.982 104.704H236.73ZM263.149 112.384C264.349 112.384 265.425 112.168 266.377 111.736C267.337 111.296 268.093 110.66 268.645 109.828C269.205 108.996 269.485 107.988 269.485 106.804C269.485 105.892 269.321 105.12 268.993 104.488C268.665 103.856 268.217 103.32 267.649 102.88C267.089 102.432 266.453 102.048 265.741 101.728C265.029 101.4 264.285 101.092 263.509 100.804C262.893 100.58 262.281 100.332 261.673 100.06C261.073 99.78 260.573 99.416 260.173 98.968C259.781 98.512 259.585 97.908 259.585 97.156C259.585 96.54 259.733 95.956 260.029 95.404C260.325 94.844 260.757 94.388 261.325 94.036C261.901 93.684 262.597 93.508 263.413 93.508C264.389 93.508 265.237 93.736 265.957 94.192C266.685 94.648 267.217 95.152 267.553 95.704L268.489 94.444C268.217 94.02 267.829 93.612 267.325 93.22C266.829 92.82 266.249 92.492 265.585 92.236C264.921 91.972 264.193 91.84 263.401 91.84C262.305 91.84 261.337 92.084 260.497 92.572C259.665 93.06 259.013 93.708 258.541 94.516C258.077 95.316 257.845 96.196 257.845 97.156C257.845 97.924 257.985 98.58 258.265 99.124C258.553 99.668 258.925 100.128 259.381 100.504C259.837 100.88 260.325 101.196 260.845 101.452C261.373 101.708 261.877 101.928 262.357 102.112C263.277 102.456 264.133 102.816 264.925 103.192C265.717 103.56 266.353 104.028 266.833 104.596C267.321 105.164 267.565 105.92 267.565 106.864C267.565 107.704 267.365 108.408 266.965 108.976C266.565 109.544 266.033 109.972 265.369 110.26C264.713 110.548 263.985 110.692 263.185 110.692C262.345 110.692 261.605 110.56 260.965 110.296C260.325 110.024 259.777 109.696 259.321 109.312C258.865 108.92 258.489 108.536 258.193 108.16C257.905 107.776 257.689 107.472 257.545 107.248L256.501 108.592C256.629 108.808 256.853 109.124 257.173 109.54C257.501 109.948 257.937 110.372 258.481 110.812C259.025 111.244 259.681 111.616 260.449 111.928C261.225 112.232 262.125 112.384 263.149 112.384ZM274.827 97.252C275.147 97.252 275.419 97.14 275.643 96.916C275.867 96.692 275.979 96.42 275.979 96.1C275.979 95.78 275.867 95.512 275.643 95.296C275.419 95.072 275.147 94.96 274.827 94.96C274.507 94.96 274.235 95.072 274.011 95.296C273.795 95.512 273.687 95.78 273.687 96.1C273.687 96.42 273.795 96.692 274.011 96.916C274.235 97.14 274.507 97.252 274.827 97.252ZM284.069 112.384C285.405 112.384 286.493 112.024 287.333 111.304C288.181 110.584 288.605 109.608 288.605 108.376C288.605 107.656 288.457 107.088 288.161 106.672C287.865 106.248 287.449 105.9 286.913 105.628C286.377 105.348 285.753 105.076 285.041 104.812C284.545 104.62 284.081 104.428 283.649 104.236C283.225 104.044 282.881 103.816 282.617 103.552C282.353 103.28 282.221 102.936 282.221 102.52C282.221 101.952 282.429 101.492 282.845 101.14C283.269 100.788 283.817 100.612 284.489 100.612C285.585 100.612 286.501 101.096 287.237 102.064L288.041 101.044C287.561 100.5 287.017 100.08 286.409 99.784C285.809 99.488 285.165 99.34 284.477 99.34C283.725 99.34 283.053 99.484 282.461 99.772C281.869 100.052 281.405 100.44 281.069 100.936C280.733 101.424 280.565 101.984 280.565 102.616C280.565 103.24 280.721 103.756 281.033 104.164C281.353 104.564 281.757 104.896 282.245 105.16C282.733 105.424 283.237 105.66 283.757 105.868C284.421 106.124 284.981 106.352 285.437 106.552C285.893 106.752 286.237 106.992 286.469 107.272C286.709 107.552 286.829 107.94 286.829 108.436C286.829 109.236 286.557 109.868 286.013 110.332C285.469 110.796 284.817 111.028 284.057 111.028C283.305 111.028 282.621 110.812 282.005 110.38C281.389 109.94 280.889 109.328 280.505 108.544L279.569 109.552C280.001 110.456 280.605 111.156 281.381 111.652C282.157 112.14 283.053 112.384 284.069 112.384ZM295.609 112.384C296.393 112.384 297.081 112.2 297.673 111.832L297.229 110.44C296.877 110.704 296.461 110.836 295.981 110.836C294.965 110.836 294.457 110.136 294.457 108.736V101.032H297.517V99.712H294.457V95.116H292.705V99.712H291.457V101.032H292.705V108.832C292.705 109.96 292.957 110.836 293.461 111.46C293.973 112.076 294.689 112.384 295.609 112.384ZM307.262 112.384C308.486 112.384 309.598 112.12 310.598 111.592C311.606 111.064 312.402 110.324 312.986 109.372L311.69 108.676C310.666 110.18 309.214 110.932 307.334 110.932C306.358 110.932 305.49 110.724 304.73 110.308C303.97 109.884 303.374 109.304 302.942 108.568C302.518 107.824 302.306 106.976 302.306 106.024H313.37C313.386 105.936 313.394 105.86 313.394 105.796C313.402 105.732 313.406 105.656 313.406 105.568C313.374 104.344 313.078 103.264 312.518 102.328C311.966 101.384 311.214 100.648 310.262 100.12C309.318 99.592 308.238 99.328 307.022 99.328C306.134 99.328 305.298 99.496 304.514 99.832C303.738 100.168 303.054 100.636 302.462 101.236C301.87 101.836 301.406 102.536 301.07 103.336C300.734 104.128 300.566 104.984 300.566 105.904C300.566 107.128 300.854 108.232 301.43 109.216C302.014 110.192 302.81 110.964 303.818 111.532C304.826 112.1 305.974 112.384 307.262 112.384ZM302.402 104.704C302.506 103.928 302.77 103.248 303.194 102.664C303.626 102.072 304.174 101.612 304.838 101.284C305.502 100.948 306.238 100.78 307.046 100.78C307.838 100.78 308.562 100.948 309.218 101.284C309.874 101.62 310.418 102.084 310.85 102.676C311.282 103.268 311.55 103.944 311.654 104.704H302.402ZM317.486 112H319.238V103.672C319.238 103.2 319.402 102.744 319.73 102.304C320.066 101.856 320.51 101.488 321.062 101.2C321.614 100.912 322.226 100.768 322.898 100.768C323.858 100.768 324.626 101.08 325.202 101.704C325.778 102.328 326.066 103.172 326.066 104.236V112H327.818V103.804C327.818 103.3 327.978 102.816 328.298 102.352C328.618 101.888 329.05 101.508 329.594 101.212C330.138 100.916 330.746 100.768 331.418 100.768C332.394 100.768 333.174 101.096 333.758 101.752C334.342 102.408 334.634 103.296 334.634 104.416V112H336.386V103.924C336.386 102.452 335.962 101.32 335.114 100.528C334.266 99.728 333.186 99.328 331.874 99.328C330.866 99.328 329.994 99.564 329.258 100.036C328.53 100.508 327.93 101.136 327.458 101.92C327.17 101.12 326.65 100.488 325.898 100.024C325.154 99.56 324.278 99.328 323.27 99.328C321.566 99.328 320.222 100.016 319.238 101.392V99.712H317.486V112ZM346.59 112.384C347.678 112.384 348.666 112.12 349.554 111.592C350.442 111.064 351.15 110.336 351.678 109.408V112H353.43V99.712H351.678V102.268C351.214 101.348 350.526 100.628 349.614 100.108C348.71 99.588 347.702 99.328 346.59 99.328C345.422 99.328 344.374 99.612 343.446 100.18C342.526 100.74 341.798 101.512 341.262 102.496C340.734 103.48 340.47 104.596 340.47 105.844C340.47 107.108 340.738 108.232 341.274 109.216C341.818 110.2 342.55 110.976 343.47 111.544C344.39 112.104 345.43 112.384 346.59 112.384ZM347.022 110.86C346.11 110.86 345.294 110.644 344.574 110.212C343.862 109.78 343.302 109.188 342.894 108.436C342.486 107.684 342.282 106.824 342.282 105.856C342.282 104.88 342.486 104.016 342.894 103.264C343.302 102.512 343.862 101.924 344.574 101.5C345.286 101.068 346.102 100.852 347.022 100.852C347.942 100.852 348.758 101.068 349.47 101.5C350.182 101.924 350.738 102.512 351.138 103.264C351.546 104.016 351.75 104.88 351.75 105.856C351.75 106.824 351.546 107.688 351.138 108.448C350.73 109.2 350.17 109.792 349.458 110.224C348.754 110.648 347.942 110.86 347.022 110.86ZM361.694 112.384C363.03 112.384 364.118 112.024 364.958 111.304C365.806 110.584 366.23 109.608 366.23 108.376C366.23 107.656 366.082 107.088 365.786 106.672C365.49 106.248 365.074 105.9 364.538 105.628C364.002 105.348 363.378 105.076 362.666 104.812C362.17 104.62 361.706 104.428 361.274 104.236C360.85 104.044 360.506 103.816 360.242 103.552C359.978 103.28 359.846 102.936 359.846 102.52C359.846 101.952 360.054 101.492 360.47 101.14C360.894 100.788 361.442 100.612 362.114 100.612C363.21 100.612 364.126 101.096 364.862 102.064L365.666 101.044C365.186 100.5 364.642 100.08 364.034 99.784C363.434 99.488 362.79 99.34 362.102 99.34C361.35 99.34 360.678 99.484 360.086 99.772C359.494 100.052 359.03 100.44 358.694 100.936C358.358 101.424 358.19 101.984 358.19 102.616C358.19 103.24 358.346 103.756 358.658 104.164C358.978 104.564 359.382 104.896 359.87 105.16C360.358 105.424 360.862 105.66 361.382 105.868C362.046 106.124 362.606 106.352 363.062 106.552C363.518 106.752 363.862 106.992 364.094 107.272C364.334 107.552 364.454 107.94 364.454 108.436C364.454 109.236 364.182 109.868 363.638 110.332C363.094 110.796 362.442 111.028 361.682 111.028C360.93 111.028 360.246 110.812 359.63 110.38C359.014 109.94 358.514 109.328 358.13 108.544L357.194 109.552C357.626 110.456 358.23 111.156 359.006 111.652C359.782 112.14 360.678 112.384 361.694 112.384ZM273.951 112H275.703V99.712H273.951V112ZM217.512 161H231.54V159.284H221.22C223.18 157.756 224.804 156.42 226.092 155.276C227.38 154.132 228.392 153.116 229.128 152.228C229.872 151.332 230.4 150.496 230.712 149.72C231.024 148.944 231.18 148.156 231.18 147.356C231.18 146.116 230.884 145.004 230.292 144.02C229.7 143.036 228.9 142.26 227.892 141.692C226.884 141.116 225.76 140.828 224.52 140.828C223.328 140.828 222.244 141.1 221.268 141.644C220.292 142.18 219.496 142.916 218.88 143.852C218.272 144.78 217.908 145.836 217.788 147.02L219.432 147.572C219.52 146.604 219.792 145.744 220.248 144.992C220.712 144.232 221.308 143.636 222.036 143.204C222.764 142.772 223.564 142.556 224.436 142.556C225.316 142.556 226.116 142.772 226.836 143.204C227.556 143.636 228.128 144.216 228.552 144.944C228.984 145.672 229.2 146.484 229.2 147.38C229.2 148.084 229.02 148.812 228.66 149.564C228.3 150.316 227.684 151.168 226.812 152.12C225.94 153.072 224.748 154.196 223.236 155.492C221.724 156.788 219.816 158.34 217.512 160.148V161ZM243.565 161.384C245.181 161.384 246.593 160.956 247.801 160.1C249.009 159.236 249.949 158.036 250.621 156.5C251.301 154.956 251.641 153.16 251.641 151.112C251.641 149.064 251.301 147.272 250.621 145.736C249.949 144.192 249.009 142.992 247.801 142.136C246.593 141.272 245.181 140.84 243.565 140.84C241.957 140.84 240.545 141.272 239.329 142.136C238.121 142.992 237.177 144.192 236.497 145.736C235.825 147.272 235.489 149.064 235.489 151.112C235.489 153.16 235.825 154.956 236.497 156.5C237.177 158.036 238.121 159.236 239.329 160.1C240.545 160.956 241.957 161.384 243.565 161.384ZM243.565 159.74C242.333 159.74 241.253 159.384 240.325 158.672C239.405 157.96 238.689 156.956 238.177 155.66C237.673 154.364 237.421 152.848 237.421 151.112C237.421 149.368 237.673 147.852 238.177 146.564C238.689 145.268 239.405 144.264 240.325 143.552C241.253 142.84 242.333 142.484 243.565 142.484C244.797 142.484 245.873 142.84 246.793 143.552C247.713 144.264 248.429 145.268 248.941 146.564C249.453 147.852 249.709 149.368 249.709 151.112C249.709 152.848 249.453 154.364 248.941 155.66C248.429 156.956 247.713 157.96 246.793 158.672C245.873 159.384 244.797 159.74 243.565 159.74ZM255.199 161H269.227V159.284H258.907C260.867 157.756 262.491 156.42 263.779 155.276C265.067 154.132 266.079 153.116 266.815 152.228C267.559 151.332 268.087 150.496 268.399 149.72C268.711 148.944 268.867 148.156 268.867 147.356C268.867 146.116 268.571 145.004 267.979 144.02C267.387 143.036 266.587 142.26 265.579 141.692C264.571 141.116 263.447 140.828 262.207 140.828C261.015 140.828 259.931 141.1 258.955 141.644C257.979 142.18 257.183 142.916 256.567 143.852C255.959 144.78 255.595 145.836 255.475 147.02L257.119 147.572C257.207 146.604 257.479 145.744 257.935 144.992C258.399 144.232 258.995 143.636 259.723 143.204C260.451 142.772 261.251 142.556 262.123 142.556C263.003 142.556 263.803 142.772 264.523 143.204C265.243 143.636 265.815 144.216 266.239 144.944C266.671 145.672 266.887 146.484 266.887 147.38C266.887 148.084 266.707 148.812 266.347 149.564C265.987 150.316 265.371 151.168 264.499 152.12C263.627 153.072 262.435 154.196 260.923 155.492C259.411 156.788 257.503 158.34 255.199 160.148V161ZM281.253 161.384C282.869 161.384 284.281 160.956 285.489 160.1C286.697 159.236 287.637 158.036 288.309 156.5C288.989 154.956 289.329 153.16 289.329 151.112C289.329 149.064 288.989 147.272 288.309 145.736C287.637 144.192 286.697 142.992 285.489 142.136C284.281 141.272 282.869 140.84 281.253 140.84C279.645 140.84 278.233 141.272 277.017 142.136C275.809 142.992 274.865 144.192 274.185 145.736C273.513 147.272 273.177 149.064 273.177 151.112C273.177 153.16 273.513 154.956 274.185 156.5C274.865 158.036 275.809 159.236 277.017 160.1C278.233 160.956 279.645 161.384 281.253 161.384ZM281.253 159.74C280.021 159.74 278.941 159.384 278.013 158.672C277.093 157.96 276.377 156.956 275.865 155.66C275.361 154.364 275.109 152.848 275.109 151.112C275.109 149.368 275.361 147.852 275.865 146.564C276.377 145.268 277.093 144.264 278.013 143.552C278.941 142.84 280.021 142.484 281.253 142.484C282.485 142.484 283.561 142.84 284.481 143.552C285.401 144.264 286.117 145.268 286.629 146.564C287.141 147.852 287.397 149.368 287.397 151.112C287.397 152.848 287.141 154.364 286.629 155.66C286.117 156.956 285.401 157.96 284.481 158.672C283.561 159.384 282.485 159.74 281.253 159.74ZM300.119 154.796H307.847V153.296H300.119V154.796ZM318.106 161H332.134V159.284H321.814C323.774 157.756 325.398 156.42 326.686 155.276C327.974 154.132 328.986 153.116 329.722 152.228C330.466 151.332 330.994 150.496 331.306 149.72C331.618 148.944 331.774 148.156 331.774 147.356C331.774 146.116 331.478 145.004 330.886 144.02C330.294 143.036 329.494 142.26 328.486 141.692C327.478 141.116 326.354 140.828 325.114 140.828C323.922 140.828 322.838 141.1 321.862 141.644C320.886 142.18 320.09 142.916 319.474 143.852C318.866 144.78 318.502 145.836 318.382 147.02L320.026 147.572C320.114 146.604 320.386 145.744 320.842 144.992C321.306 144.232 321.902 143.636 322.63 143.204C323.358 142.772 324.158 142.556 325.03 142.556C325.91 142.556 326.71 142.772 327.43 143.204C328.15 143.636 328.722 144.216 329.146 144.944C329.578 145.672 329.794 146.484 329.794 147.38C329.794 148.084 329.614 148.812 329.254 149.564C328.894 150.316 328.278 151.168 327.406 152.12C326.534 153.072 325.342 154.196 323.83 155.492C322.318 156.788 320.41 158.34 318.106 160.148V161ZM344.159 161.384C345.775 161.384 347.187 160.956 348.395 160.1C349.603 159.236 350.543 158.036 351.215 156.5C351.895 154.956 352.235 153.16 352.235 151.112C352.235 149.064 351.895 147.272 351.215 145.736C350.543 144.192 349.603 142.992 348.395 142.136C347.187 141.272 345.775 140.84 344.159 140.84C342.551 140.84 341.139 141.272 339.923 142.136C338.715 142.992 337.771 144.192 337.091 145.736C336.419 147.272 336.083 149.064 336.083 151.112C336.083 153.16 336.419 154.956 337.091 156.5C337.771 158.036 338.715 159.236 339.923 160.1C341.139 160.956 342.551 161.384 344.159 161.384ZM344.159 159.74C342.927 159.74 341.847 159.384 340.919 158.672C339.999 157.96 339.283 156.956 338.771 155.66C338.267 154.364 338.015 152.848 338.015 151.112C338.015 149.368 338.267 147.852 338.771 146.564C339.283 145.268 339.999 144.264 340.919 143.552C341.847 142.84 342.927 142.484 344.159 142.484C345.391 142.484 346.467 142.84 347.387 143.552C348.307 144.264 349.023 145.268 349.535 146.564C350.047 147.852 350.303 149.368 350.303 151.112C350.303 152.848 350.047 154.364 349.535 155.66C349.023 156.956 348.307 157.96 347.387 158.672C346.467 159.384 345.391 159.74 344.159 159.74ZM355.793 161H369.821V159.284H359.501C361.461 157.756 363.085 156.42 364.373 155.276C365.661 154.132 366.673 153.116 367.409 152.228C368.153 151.332 368.681 150.496 368.993 149.72C369.305 148.944 369.461 148.156 369.461 147.356C369.461 146.116 369.165 145.004 368.573 144.02C367.981 143.036 367.181 142.26 366.173 141.692C365.165 141.116 364.041 140.828 362.801 140.828C361.609 140.828 360.525 141.1 359.549 141.644C358.573 142.18 357.777 142.916 357.161 143.852C356.553 144.78 356.189 145.836 356.069 147.02L357.713 147.572C357.801 146.604 358.073 145.744 358.529 144.992C358.993 144.232 359.589 143.636 360.317 143.204C361.045 142.772 361.845 142.556 362.717 142.556C363.597 142.556 364.397 142.772 365.117 143.204C365.837 143.636 366.409 144.216 366.833 144.944C367.265 145.672 367.481 146.484 367.481 147.38C367.481 148.084 367.301 148.812 366.941 149.564C366.581 150.316 365.965 151.168 365.093 152.12C364.221 153.072 363.029 154.196 361.517 155.492C360.005 156.788 358.097 158.34 355.793 160.148V161ZM373.231 161H387.259V159.284H376.939C378.899 157.756 380.523 156.42 381.811 155.276C383.099 154.132 384.111 153.116 384.847 152.228C385.591 151.332 386.119 150.496 386.431 149.72C386.743 148.944 386.899 148.156 386.899 147.356C386.899 146.116 386.603 145.004 386.011 144.02C385.419 143.036 384.619 142.26 383.611 141.692C382.603 141.116 381.479 140.828 380.239 140.828C379.047 140.828 377.963 141.1 376.987 141.644C376.011 142.18 375.215 142.916 374.599 143.852C373.991 144.78 373.627 145.836 373.507 147.02L375.151 147.572C375.239 146.604 375.511 145.744 375.967 144.992C376.431 144.232 377.027 143.636 377.755 143.204C378.483 142.772 379.283 142.556 380.155 142.556C381.035 142.556 381.835 142.772 382.555 143.204C383.275 143.636 383.847 144.216 384.271 144.944C384.703 145.672 384.919 146.484 384.919 147.38C384.919 148.084 384.739 148.812 384.379 149.564C384.019 150.316 383.403 151.168 382.531 152.12C381.659 153.072 380.467 154.196 378.955 155.492C377.443 156.788 375.535 158.34 373.231 160.148V161ZM1.09997 272H2.92397L5.11997 255.596L10.772 270.788H12.08L17.732 255.596L19.928 272H21.752L19.184 252.2H17.252L11.42 267.692L5.59997 252.2H3.66797L1.09997 272ZM31.6677 272.384C32.7557 272.384 33.7437 272.12 34.6317 271.592C35.5197 271.064 36.2277 270.336 36.7557 269.408V272H38.5077V259.712H36.7557V262.268C36.2917 261.348 35.6037 260.628 34.6917 260.108C33.7877 259.588 32.7797 259.328 31.6677 259.328C30.4997 259.328 29.4517 259.612 28.5237 260.18C27.6037 260.74 26.8757 261.512 26.3397 262.496C25.8117 263.48 25.5477 264.596 25.5477 265.844C25.5477 267.108 25.8157 268.232 26.3517 269.216C26.8957 270.2 27.6277 270.976 28.5477 271.544C29.4677 272.104 30.5077 272.384 31.6677 272.384ZM32.0997 270.86C31.1877 270.86 30.3717 270.644 29.6517 270.212C28.9397 269.78 28.3797 269.188 27.9717 268.436C27.5637 267.684 27.3597 266.824 27.3597 265.856C27.3597 264.88 27.5637 264.016 27.9717 263.264C28.3797 262.512 28.9397 261.924 29.6517 261.5C30.3637 261.068 31.1797 260.852 32.0997 260.852C33.0197 260.852 33.8357 261.068 34.5477 261.5C35.2597 261.924 35.8157 262.512 36.2157 263.264C36.6237 264.016 36.8277 264.88 36.8277 265.856C36.8277 266.824 36.6237 267.688 36.2157 268.448C35.8077 269.2 35.2477 269.792 34.5357 270.224C33.8317 270.648 33.0197 270.86 32.0997 270.86ZM43.6737 272H45.4257V263.888C45.4257 263.368 45.5817 262.88 45.8937 262.424C46.2137 261.96 46.6257 261.584 47.1297 261.296C47.6417 261.008 48.1777 260.864 48.7377 260.864C49.3537 260.864 49.9217 260.988 50.4417 261.236L51.1617 259.76C50.5617 259.472 49.8737 259.328 49.0977 259.328C47.4417 259.328 46.2177 260.06 45.4257 261.524V259.712H43.6737V272ZM54.4081 272H56.1601V266.168L61.4041 272H63.6481L57.7561 265.496L63.3601 259.712H61.0681L56.1601 264.74V251.36H54.4081V272ZM72.7775 272.384C74.0015 272.384 75.1135 272.12 76.1135 271.592C77.1215 271.064 77.9175 270.324 78.5015 269.372L77.2055 268.676C76.1815 270.18 74.7295 270.932 72.8495 270.932C71.8735 270.932 71.0055 270.724 70.2455 270.308C69.4855 269.884 68.8895 269.304 68.4575 268.568C68.0335 267.824 67.8215 266.976 67.8215 266.024H78.8855C78.9015 265.936 78.9095 265.86 78.9095 265.796C78.9175 265.732 78.9215 265.656 78.9215 265.568C78.8895 264.344 78.5935 263.264 78.0335 262.328C77.4815 261.384 76.7295 260.648 75.7775 260.12C74.8335 259.592 73.7535 259.328 72.5375 259.328C71.6495 259.328 70.8135 259.496 70.0295 259.832C69.2535 260.168 68.5695 260.636 67.9775 261.236C67.3855 261.836 66.9215 262.536 66.5855 263.336C66.2495 264.128 66.0815 264.984 66.0815 265.904C66.0815 267.128 66.3695 268.232 66.9455 269.216C67.5295 270.192 68.3255 270.964 69.3335 271.532C70.3415 272.1 71.4895 272.384 72.7775 272.384ZM67.9175 264.704C68.0215 263.928 68.2855 263.248 68.7095 262.664C69.1415 262.072 69.6895 261.612 70.3535 261.284C71.0175 260.948 71.7535 260.78 72.5615 260.78C73.3535 260.78 74.0775 260.948 74.7335 261.284C75.3895 261.62 75.9335 262.084 76.3655 262.676C76.7975 263.268 77.0655 263.944 77.1695 264.704H67.9175ZM85.9915 272.384C86.7755 272.384 87.4635 272.2 88.0555 271.832L87.6115 270.44C87.2595 270.704 86.8435 270.836 86.3635 270.836C85.3475 270.836 84.8395 270.136 84.8395 268.736V261.032H87.8995V259.712H84.8395V255.116H83.0875V259.712H81.8395V261.032H83.0875V268.832C83.0875 269.96 83.3395 270.836 83.8435 271.46C84.3555 272.076 85.0715 272.384 85.9915 272.384ZM92.7487 257.252C93.0687 257.252 93.3407 257.14 93.5647 256.916C93.7887 256.692 93.9007 256.42 93.9007 256.1C93.9007 255.78 93.7887 255.512 93.5647 255.296C93.3407 255.072 93.0687 254.96 92.7487 254.96C92.4287 254.96 92.1567 255.072 91.9327 255.296C91.7167 255.512 91.6087 255.78 91.6087 256.1C91.6087 256.42 91.7167 256.692 91.9327 256.916C92.1567 257.14 92.4287 257.252 92.7487 257.252ZM93.6247 272V259.712H91.8727V272H93.6247ZM98.7987 272H100.551V263.996C100.551 263.42 100.691 262.888 100.971 262.4C101.259 261.904 101.671 261.508 102.207 261.212C102.743 260.908 103.387 260.756 104.139 260.756C105.211 260.756 106.043 261.092 106.635 261.764C107.235 262.436 107.535 263.404 107.535 264.668V272H109.287V264.332C109.287 262.748 108.875 261.52 108.051 260.648C107.235 259.768 106.115 259.328 104.691 259.328C103.675 259.328 102.811 259.528 102.099 259.928C101.395 260.328 100.879 260.816 100.551 261.392V259.712H98.7987V272ZM119.645 278.6C121.701 278.6 123.325 278.064 124.517 276.992C125.709 275.92 126.305 274.368 126.305 272.336V259.712H124.553V262.268C124.057 261.348 123.365 260.628 122.477 260.108C121.589 259.588 120.597 259.328 119.501 259.328C118.325 259.328 117.273 259.612 116.345 260.18C115.425 260.74 114.697 261.512 114.161 262.496C113.625 263.48 113.357 264.6 113.357 265.856C113.357 267.12 113.625 268.244 114.161 269.228C114.705 270.212 115.437 270.984 116.357 271.544C117.285 272.104 118.321 272.384 119.465 272.384C120.561 272.384 121.553 272.12 122.441 271.592C123.337 271.064 124.041 270.336 124.553 269.408V272.408C124.553 273.392 124.337 274.236 123.905 274.94C123.481 275.644 122.897 276.18 122.153 276.548C121.417 276.924 120.581 277.112 119.645 277.112C118.533 277.112 117.541 276.86 116.669 276.356C115.797 275.86 115.173 275.188 114.797 274.34L113.321 275.024C114.385 277.408 116.493 278.6 119.645 278.6ZM119.885 270.86C118.973 270.86 118.161 270.644 117.449 270.212C116.737 269.78 116.177 269.188 115.769 268.436C115.361 267.684 115.157 266.828 115.157 265.868C115.157 264.892 115.361 264.028 115.769 263.276C116.177 262.516 116.737 261.924 117.449 261.5C118.169 261.068 118.985 260.852 119.897 260.852C120.817 260.852 121.633 261.068 122.345 261.5C123.057 261.924 123.617 262.516 124.025 263.276C124.433 264.028 124.637 264.892 124.637 265.868C124.637 266.836 124.433 267.696 124.025 268.448C123.617 269.2 123.057 269.792 122.345 270.224C121.633 270.648 120.813 270.86 119.885 270.86ZM0.51197 321H14.54V319.284H4.21997C6.17997 317.756 7.80397 316.42 9.09197 315.276C10.38 314.132 11.392 313.116 12.128 312.228C12.872 311.332 13.4 310.496 13.712 309.72C14.024 308.944 14.18 308.156 14.18 307.356C14.18 306.116 13.884 305.004 13.292 304.02C12.7 303.036 11.9 302.26 10.892 301.692C9.88397 301.116 8.75997 300.828 7.51997 300.828C6.32797 300.828 5.24397 301.1 4.26797 301.644C3.29197 302.18 2.49597 302.916 1.87997 303.852C1.27197 304.78 0.90797 305.836 0.78797 307.02L2.43197 307.572C2.51997 306.604 2.79197 305.744 3.24797 304.992C3.71197 304.232 4.30797 303.636 5.03597 303.204C5.76397 302.772 6.56397 302.556 7.43597 302.556C8.31597 302.556 9.11597 302.772 9.83597 303.204C10.556 303.636 11.128 304.216 11.552 304.944C11.984 305.672 12.2 306.484 12.2 307.38C12.2 308.084 12.02 308.812 11.66 309.564C11.3 310.316 10.684 311.168 9.81197 312.12C8.93997 313.072 7.74797 314.196 6.23597 315.492C4.72397 316.788 2.81597 318.34 0.51197 320.148V321ZM26.5655 321.384C28.1815 321.384 29.5935 320.956 30.8015 320.1C32.0095 319.236 32.9495 318.036 33.6215 316.5C34.3015 314.956 34.6415 313.16 34.6415 311.112C34.6415 309.064 34.3015 307.272 33.6215 305.736C32.9495 304.192 32.0095 302.992 30.8015 302.136C29.5935 301.272 28.1815 300.84 26.5655 300.84C24.9575 300.84 23.5455 301.272 22.3295 302.136C21.1215 302.992 20.1775 304.192 19.4975 305.736C18.8255 307.272 18.4895 309.064 18.4895 311.112C18.4895 313.16 18.8255 314.956 19.4975 316.5C20.1775 318.036 21.1215 319.236 22.3295 320.1C23.5455 320.956 24.9575 321.384 26.5655 321.384ZM26.5655 319.74C25.3335 319.74 24.2535 319.384 23.3255 318.672C22.4055 317.96 21.6895 316.956 21.1775 315.66C20.6735 314.364 20.4215 312.848 20.4215 311.112C20.4215 309.368 20.6735 307.852 21.1775 306.564C21.6895 305.268 22.4055 304.264 23.3255 303.552C24.2535 302.84 25.3335 302.484 26.5655 302.484C27.7975 302.484 28.8735 302.84 29.7935 303.552C30.7135 304.264 31.4295 305.268 31.9415 306.564C32.4535 307.852 32.7095 309.368 32.7095 311.112C32.7095 312.848 32.4535 314.364 31.9415 315.66C31.4295 316.956 30.7135 317.96 29.7935 318.672C28.8735 319.384 27.7975 319.74 26.5655 319.74ZM40.1795 321H42.0035V301.2H38.3075V303H40.1795V321ZM46.4935 321H48.6535L59.1175 301.812V301.2H46.6735V302.808H56.4295L46.4935 321ZM69.0097 314.796H76.7377V313.296H69.0097V314.796ZM80.8323 321H94.8603V319.284H84.5403C86.5003 317.756 88.1243 316.42 89.4123 315.276C90.7003 314.132 91.7123 313.116 92.4483 312.228C93.1923 311.332 93.7203 310.496 94.0323 309.72C94.3443 308.944 94.5003 308.156 94.5003 307.356C94.5003 306.116 94.2043 305.004 93.6123 304.02C93.0203 303.036 92.2203 302.26 91.2123 301.692C90.2043 301.116 89.0803 300.828 87.8403 300.828C86.6483 300.828 85.5643 301.1 84.5883 301.644C83.6123 302.18 82.8163 302.916 82.2003 303.852C81.5923 304.78 81.2283 305.836 81.1083 307.02L82.7523 307.572C82.8403 306.604 83.1123 305.744 83.5683 304.992C84.0323 304.232 84.6283 303.636 85.3563 303.204C86.0843 302.772 86.8843 302.556 87.7563 302.556C88.6363 302.556 89.4363 302.772 90.1563 303.204C90.8763 303.636 91.4483 304.216 91.8723 304.944C92.3043 305.672 92.5203 306.484 92.5203 307.38C92.5203 308.084 92.3403 308.812 91.9803 309.564C91.6203 310.316 91.0043 311.168 90.1323 312.12C89.2603 313.072 88.0683 314.196 86.5563 315.492C85.0443 316.788 83.1363 318.34 80.8323 320.148V321ZM106.886 321.384C108.502 321.384 109.914 320.956 111.122 320.1C112.33 319.236 113.27 318.036 113.942 316.5C114.622 314.956 114.962 313.16 114.962 311.112C114.962 309.064 114.622 307.272 113.942 305.736C113.27 304.192 112.33 302.992 111.122 302.136C109.914 301.272 108.502 300.84 106.886 300.84C105.278 300.84 103.866 301.272 102.65 302.136C101.442 302.992 100.498 304.192 99.8178 305.736C99.1458 307.272 98.8098 309.064 98.8098 311.112C98.8098 313.16 99.1458 314.956 99.8178 316.5C100.498 318.036 101.442 319.236 102.65 320.1C103.866 320.956 105.278 321.384 106.886 321.384ZM106.886 319.74C105.654 319.74 104.574 319.384 103.646 318.672C102.726 317.96 102.01 316.956 101.498 315.66C100.994 314.364 100.742 312.848 100.742 311.112C100.742 309.368 100.994 307.852 101.498 306.564C102.01 305.268 102.726 304.264 103.646 303.552C104.574 302.84 105.654 302.484 106.886 302.484C108.118 302.484 109.194 302.84 110.114 303.552C111.034 304.264 111.75 305.268 112.262 306.564C112.774 307.852 113.03 309.368 113.03 311.112C113.03 312.848 112.774 314.364 112.262 315.66C111.75 316.956 111.034 317.96 110.114 318.672C109.194 319.384 108.118 319.74 106.886 319.74ZM120.5 321H122.324V301.2H118.628V303H120.5V321ZM130.162 321H132.382L138.958 313.14C139.646 312.308 140.178 311.456 140.554 310.584C140.938 309.704 141.126 308.72 141.118 307.632C141.118 306.336 140.818 305.176 140.218 304.152C139.618 303.128 138.79 302.32 137.734 301.728C136.678 301.128 135.458 300.828 134.074 300.828C132.698 300.828 131.486 301.124 130.438 301.716C129.398 302.308 128.586 303.112 128.002 304.128C127.418 305.136 127.126 306.28 127.126 307.56C127.126 308.872 127.422 310.044 128.014 311.076C128.614 312.1 129.414 312.908 130.414 313.5C131.422 314.092 132.534 314.388 133.75 314.388C134.766 314.388 135.654 314.112 136.414 313.56L130.162 321ZM134.134 312.756C133.15 312.756 132.266 312.528 131.482 312.072C130.706 311.608 130.09 310.984 129.634 310.2C129.186 309.408 128.962 308.52 128.962 307.536C128.962 306.552 129.186 305.676 129.634 304.908C130.082 304.14 130.694 303.536 131.47 303.096C132.254 302.656 133.142 302.436 134.134 302.436C135.126 302.436 136.002 302.656 136.762 303.096C137.53 303.536 138.134 304.14 138.574 304.908C139.014 305.668 139.234 306.544 139.234 307.536C139.234 308.488 139.002 309.36 138.538 310.152C138.082 310.944 137.466 311.576 136.69 312.048C135.922 312.52 135.07 312.756 134.134 312.756Z" fill="#F9F9F9"/>
</svg>
