<svg width="35" height="35" viewBox="0 0 35 35" fill="none" xmlns="http://www.w3.org/2000/svg">
<path d="M32.3825 8.07124C27.1469 -0.000266815 16.4576 -2.3999 8.16796 2.61752C0.0964503 7.63494 -2.52134 18.5424 2.71424 26.6139L3.15053 27.2683L1.40534 33.8128L7.94981 32.0676L8.60426 32.5039C11.4402 34.031 14.4943 34.9036 17.5484 34.9036C20.8206 34.9036 24.0928 34.031 26.9288 32.2858C35.0003 27.0502 37.3999 16.3609 32.3825 8.07124ZM27.8014 24.8687C26.9288 26.1776 25.838 27.0502 24.311 27.2683C23.4384 27.2683 22.3476 27.7046 17.9847 25.9594C14.2761 24.2143 11.222 21.3783 9.04055 18.1061C7.73166 16.579 7.07721 14.6157 6.85907 12.6524C6.85907 10.9072 7.51351 9.38014 8.60426 8.28939C9.04055 7.85309 9.47685 7.63494 9.91315 7.63494H11.0039C11.4402 7.63494 11.8765 7.63494 12.0946 8.50754C12.5309 9.59828 13.6217 12.2161 13.6217 12.4342C13.8398 12.6524 13.8398 13.0887 13.6217 13.3068C13.8398 13.7431 13.6217 14.1794 13.4035 14.3976C13.1854 14.6157 12.9672 15.052 12.7491 15.2702C12.3128 15.4883 12.0946 15.9246 12.3128 16.3609C13.1854 17.6698 14.2761 18.9787 15.3669 20.0694C16.6758 21.1602 17.9847 22.0328 19.5117 22.6872C19.948 22.9054 20.3843 22.9054 20.6024 22.4691C20.8206 22.0328 21.9113 20.942 22.3476 20.5057C22.7839 20.0694 23.0021 20.0694 23.4384 20.2876L26.9288 22.0328C27.3651 22.2509 27.8014 22.4691 28.0195 22.6872C28.2377 23.3417 28.2377 24.2143 27.8014 24.8687Z" fill="white"/>
</svg>
